<?xml version="1.0" encoding="utf-8"?>
<!-- Generator: Adobe Illustrator 25.2.1, SVG Export Plug-In . SVG Version: 6.00 Build 0)  -->
<svg version="1.1" id="Layer_1" xmlns="http://www.w3.org/2000/svg" xmlns:xlink="http://www.w3.org/1999/xlink" x="0px" y="0px"
	 viewBox="0 0 10 2" style="enable-background: new 0 0 10 2;" xml:space="preserve">
<style type="text/css">
  .st0 { fill: #747678; }
  .st1 { fill: #8c959d; }
  .st2 { fill: #5d5e61; }
</style>
<g>
	<path class="st0" d="M5.16,1.65c-1.36,0-3.02-0.06-4.93-0.17l-0.02-1.1C1.77,0.32,3.17,0.3,4.37,0.3c2.1,0,3.61,0.09,4.47,0.26
		c0.25,0.05,0.99,0.2,0.99,0.4c0,0.21-0.76,0.37-1.04,0.44C8.03,1.56,6.81,1.65,5.16,1.65z"/>
	<path class="st1" d="M4.37,0.29V0.3c2.1,0,3.6,0.09,4.46,0.26c0.24,0.05,0.99,0.2,0.99,0.4c0,0.2-0.78,0.38-1.04,0.43
		C8.03,1.56,6.81,1.64,5.16,1.64c-1.36,0-3.01-0.06-4.92-0.17L0.21,0.39C1.77,0.33,3.17,0.3,4.37,0.3V0.29 M4.37,0.29
		c-1.39,0-2.87,0.04-4.17,0.09c0.01,0.37,0.02,0.74,0.03,1.11C1.84,1.58,3.6,1.65,5.16,1.65c1.49,0,2.8-0.07,3.63-0.25
		c0.28-0.06,1.05-0.23,1.05-0.44c0-0.21-0.73-0.35-1-0.41C7.87,0.36,6.19,0.29,4.37,0.29L4.37,0.29z"/>
</g>
<g>
	<rect x="0.51" y="0.37" class="st2" width="0.11" height="1.14"/>
</g>
</svg>
