<?xml version="1.0" encoding="utf-8"?>
<!-- Generator: Adobe Illustrator 25.2.1, SVG Export Plug-In . SVG Version: 6.00 Build 0)  -->
<svg version="1.1" id="Layer_1" xmlns="http://www.w3.org/2000/svg" xmlns:xlink="http://www.w3.org/1999/xlink" x="0px" y="0px"
	 viewBox="0 0 100 100" style="enable-background:new 0 0 100 100;" xml:space="preserve">
<style type="text/css">
	.st0{fill:#24420E;stroke:#24420E;stroke-width:0.5;stroke-miterlimit:10.0003;}
	.st1{fill:#24420E;stroke:#24420E;stroke-width:0.5;stroke-miterlimit:9.9999;}
	.st2{opacity:0.43;fill:#FCEE21;}
	.st3{fill:#24420E;stroke:#24420E;stroke-width:0.5;stroke-miterlimit:10;}
	.st4{fill:#24420E;stroke:#24420E;stroke-width:0.5;stroke-miterlimit:9.9998;}
	.st5{fill:#999999;stroke:#666666;stroke-width:0.5;stroke-miterlimit:10;}
	.st6{stroke:#666666;stroke-width:0.5;stroke-miterlimit:10;}
	.st7{fill:#754C24;}
	.st8{fill:#754C24;stroke:#603813;stroke-width:0.5;stroke-miterlimit:10;}
	.st9{fill:#736357;stroke:#534741;stroke-width:0.5;stroke-miterlimit:10;}
	.st10{fill:#534741;}
	.st11{fill:#736357;}
	.st12{fill:#C6AC7A;stroke:#736357;stroke-miterlimit:10;}
</style>
<ellipse transform="matrix(0.9141 -0.4055 0.4055 0.9141 -13.0356 26.2308)" class="st0" cx="55.39" cy="43.88" rx="4.22" ry="18.01"/>
<ellipse transform="matrix(0.7071 -0.7071 0.7071 0.7071 -35.8982 53.3919)" class="st1" cx="46.5" cy="70.03" rx="15.96" ry="3.94"/>
<polygon class="st2" points="67.76,56.35 92.69,52.93 92.69,63.88 67.76,59.56 "/>
<ellipse class="st3" cx="28.84" cy="42.9" rx="14.02" ry="24.55"/>
<ellipse transform="matrix(0.4379 -0.899 0.899 0.4379 -2.543 48.9349)" class="st4" cx="37.86" cy="26.5" rx="5.39" ry="14.81"/>
<rect x="126.52" y="41.79" class="st5" width="23.7" height="2.21"/>
<rect x="39.64" y="56" class="st6" width="27.42" height="4.8"/>
<ellipse transform="matrix(0.866 -0.5 0.5 0.866 -30.4087 24.3374)" class="st4" cx="30.21" cy="68.91" rx="6.03" ry="13.99"/>
<path class="st7" d="M120.29,71.32v-2.57c0-1.25,1.03-2.28,2.28-2.28h11.3c1.25,0,2.28,1.03,2.28,2.28v2.57
	c0,1.25-1.03,2.28-2.28,2.28h-11.3C121.32,73.61,120.29,72.58,120.29,71.32z"/>
<path class="st8" d="M143.83,80.39L143.83,80.39c0-1.47,1.42-2.67,3.16-2.67h12.52c1.74,0,3.16,1.2,3.16,2.67l0,0
	c0,1.47-1.42,2.67-3.16,2.67c-5.86,0.67-11.72,1.35-17.58,2.02C142.57,83.52,143.2,81.96,143.83,80.39z"/>
<g>
	<path class="st9" d="M0.91,55.32c-0.74-5.66-0.83-9.59-0.83-9.59c-0.1-4.34-0.16-6.5,0.17-8.51c0.76-4.71,2.42-7.63,2.84-8.35
		c0.76-1.3,1.45-2.15,2.38-3.29c1.82-2.25,2.76-3.38,4.09-3.62c0.49-0.09,1.8-0.21,3.57,1.05c0.7-0.26,1.4-0.53,2.1-0.79
		c4.18,0.34,7.31,4.04,6.97,8.22l-2.18,26.45c-0.34,4.18-4.04,7.31-8.22,6.97c-1.76-0.49-3.53-0.97-5.29-1.46
		c-0.92-0.03-2.36-0.24-3.54-1.23C1.67,60.07,1.33,58.52,0.91,55.32z"/>

		<rect x="1.82" y="35.6" transform="matrix(0.0821 -0.9966 0.9966 0.0821 -29.576 53.2202)" class="st10" width="24.56" height="14.14"/>
	<path class="st10" d="M2.8,51.69l1.63-19.78c0.11-1.29,1.25-2.26,2.54-2.15l5.8,0.48c1.29,0.11,2.26,1.25,2.15,2.54l-1.63,19.78
		c-0.11,1.29-1.25,2.26-2.54,2.15l-5.8-0.48C3.66,54.13,2.69,52.98,2.8,51.69z"/>

		<rect x="2.51" y="38.8" transform="matrix(0.0821 -0.9966 0.9966 0.0821 -37.6814 42.6992)" class="st11" width="3.67" height="6.01"/>
</g>
<g>
	<path class="st12" d="M30.26,25.12c-2.73,0.02-4.76,0.56-5.84,0.85c-3.4,0.93-5.67,1.43-7.27,3.34c-0.99,1.19-0.63,1.56-2.13,4.53
		c-1.08,2.13-1.85,3.08-3,4.85c-2.95,4.53-4.42,6.8-4.79,9.47c-0.68,4.87,1.89,8.79,2.33,9.44c1.31,1.93,1.72,1.41,4.77,4.43
		c4.7,4.64,5.55,7.67,8.58,7.98c1,0.1,1.46-0.17,2.97-0.59c7.9-2.15,11.63,0.99,15.71-1.4c0.83-0.49,0.78-0.68,4.4-6.46
		c6.17-9.86,7.15-10.64,7.33-13.4c0.25-3.69-1.2-6.96-2.08-8.95c-1.02-2.31-1.66-3.75-3.19-5.1c-2.37-2.09-4.1-1.52-6.68-3.97
		c-1.78-1.69-1.21-2.2-2.72-3.36C36.28,24.97,33.38,25.1,30.26,25.12z"/>
	<circle class="st12" cx="30.21" cy="47.57" r="12.25"/>
</g>
</svg>
