<?xml version="1.0" encoding="utf-8"?>
<!-- Generator: Adobe Illustrator 25.2.1, SVG Export Plug-In . SVG Version: 6.00 Build 0)  -->
<svg version="1.1" id="Layer_1" xmlns="http://www.w3.org/2000/svg" xmlns:xlink="http://www.w3.org/1999/xlink" x="0px" y="0px"
	 viewBox="0 0 100 60" style="enable-background: new 0 0 100 60;" xml:space="preserve">
<style type="text/css">
  .st0 { fill: #40080c; stroke: #000; stroke-miterlimit: 10; }
  .st1 { fill: #731224; stroke: #000; stroke-miterlimit: 10; }
  .st2 { fill: #fff; stroke: #000; stroke-miterlimit: 10; }
  .st3 { fill: #bdccd4; }
  .st4 { fill: #731224; }
  .st5 { fill: none; stroke: #000; stroke-miterlimit: 10; }
  .st6 { fill: #bf1523; stroke: #000; stroke-miterlimit: 10; }
  .st7 { fill: none; stroke: #000; stroke-width: 0.5; stroke-miterlimit: 10.0002; }
  .st8 { opacity: 0.4; fill: #fcee21; enable-background: new; }
</style>
<path d="M78.33,52.85H65.38v-3.29c2.16,0,4.32,0,6.48,0s4.32,0,6.48,0C78.33,50.66,78.33,51.75,78.33,52.85z"/>
<path d="M78.33,8.39H65.38V5.1c2.16,0,4.32,0,6.48,0s4.32,0,6.48,0C78.33,6.2,78.33,7.3,78.33,8.39z"/>
<path d="M25.58,10.46H12.62V7.17c2.16,0,4.32,0,6.48,0s4.32,0,6.48,0C25.58,8.27,25.58,9.36,25.58,10.46z"/>
<rect x="1.5" y="14.5" class="st0" width="6" height="29"/>
<path d="M25.58,52.85H12.62v-3.29c2.16,0,4.32,0,6.48,0s4.32,0,6.48,0C25.58,50.66,25.58,51.75,25.58,52.85z"/>
<path class="st1" d="M61.68,51.63H58.9v6.2c0.62,0,1.23,0,1.85,0c0.32-0.68,0.73-1.74,0.93-3.1C61.86,53.45,61.78,52.36,61.68,51.63
	z"/>
<path class="st1" d="M61.68,8.2H58.9V2c0.62,0,1.23,0,1.85,0c0.32,0.68,0.73,1.74,0.93,3.1C61.86,6.38,61.78,7.47,61.68,8.2z"/>
<path class="st0" d="M80.19,50.59c-6.17,0.34-12.34,0.69-18.51,1.03V7.17c6.17,0,12.34,0,18.51,0c2.1,1.74,4.99,4.72,6.48,9.31
	c0.66,2.04,0.58,2.97,0.93,11.37c0.43,10.43,0.65,11.34,0,13.44C86.95,43.36,85.27,47.17,80.19,50.59z"/>
<path class="st1" d="M61.68,51.63c-14.5-0.34-29-0.69-43.5-1.03V9.24c14.5-0.69,29-1.38,43.5-2.07
	C61.68,21.99,61.68,36.81,61.68,51.63z"/>
<path class="st2" d="M55.2,43.36c-10.64-0.17-21.29-0.34-31.93-0.52c0.75,1.68,1.49,3.36,2.24,5.04c9.3,0.22,18.6,0.43,27.89,0.65
	C54,46.8,54.6,45.08,55.2,43.36z"/>
<path class="st2" d="M55.2,16.47c-10.95,0.52-21.9,1.03-32.85,1.55c0.77-2.02,1.54-4.05,2.31-6.07c9.56-0.22,19.13-0.43,28.69-0.65
	C53.96,13.03,54.58,14.75,55.2,16.47z"/>
<path class="st3" d="M41.31,63"/>
<polygon class="st1" points="82.44,19.95 82.57,38.5 77.73,44.44 58.44,45.24 60.31,30.5 60.03,19.11 59.38,13.82 77.45,13.99 "/>
<polygon class="st4" points="19.36,45.98 21.16,47.41 27.05,38.13 25.25,36.7 "/>
<path class="st1" d="M-85.5-67.5"/>
<polygon class="st4" points="20.38,11.32 18.83,13.06 26.02,21.1 27.58,19.36 "/>
<polygon class="st4" points="50.83,19.1 53.68,21.36 59.57,12.08 56.71,9.82 "/>
<polygon class="st4" points="52.51,38.7 50.5,40.63 57.17,49.23 59.17,47.29 "/>
<path class="st2" d="M61.21,46.97c-2.47-1.21-4.94-2.41-7.4-3.62c0-9.31,0-18.61,0-27.92c2.47-0.86,4.94-1.72,7.4-2.58
	c1.17,4.21,2.43,10.46,2.31,18.09C63.41,37.58,62.3,43.07,61.21,46.97z"/>
<path class="st0" d="M6.83,50.59H19.1V9.24H6.83c-1.56,3.45-4.38,10.8-4.38,20.68C2.44,33.82,2.89,41.88,6.83,50.59z"/>
<line class="st5" x1="18.64" y1="43.87" x2="4.3" y2="43.87"/>
<line class="st5" x1="17.25" y1="14.92" x2="4.3" y2="14.92"/>
<path class="st2" d="M54.22,13.75"/>
<path class="st1" d="M57.97,7.17l-4.16,8.27L57.97,7.17z"/>
<path class="st1" d="M57.05,51.63l-4.16-8.27L57.05,51.63z"/>
<path class="st6" d="M23.73,44.39l31.47-1.03c0-9.31,0-18.61,0-27.92c-10.49-0.34-20.98-0.69-31.47-1.03"/>
<path class="st2" d="M26.04,43.87c-2.78,0-5.55,0-8.33,0c-0.72-4.73-1.27-10.21-1.37-16.32c-0.08-4.6,0.11-8.83,0.44-12.63
	c2.78,0,5.55,0,8.33,0c-0.56,4.03-0.97,9.02-0.77,14.73C24.54,35.18,25.24,39.98,26.04,43.87z"/>
<path class="st2" d="M85.7,16.65c-0.88,0.53-1.76,1.05-2.65,1.58l-4.63-6.45c0.78-0.96,1.56-1.92,2.34-2.88
	c0.66,0.52,1.55,1.33,2.43,2.51C84.77,13.52,85.43,15.62,85.7,16.65z"/>
<path class="st2" d="M81.61,48.16c-0.71-0.79-1.42-1.58-2.13-2.37l4.17-6.83c1.05,0.55,2.1,1.1,3.15,1.65
	c-0.25,0.86-0.69,2.04-1.44,3.33C84.02,46.26,82.42,47.57,81.61,48.16z"/>
<path class="st2" d="M17.71,6.65"/>
<path class="st2" d="M17.71,53.18"/>
<path class="st2" d="M24.19,57.31"/>
<g>

		<ellipse transform="matrix(0.6577 -0.7533 0.7533 0.6577 17.0768 67.1119)" class="st7" cx="82.38" cy="14.77" rx="0.9" ry="1.17"/>

		<ellipse transform="matrix(0.6577 -0.7533 0.7533 0.6577 17.9568 65.0205)" class="st7" cx="80.52" cy="12.75" rx="0.6" ry="0.78"/>
</g>
<g>

		<ellipse transform="matrix(0.7533 -0.6577 0.6577 0.7533 -7.1121 65.2224)" class="st7" cx="83.38" cy="42.09" rx="1.17" ry="0.9"/>
	<ellipse transform="matrix(0.7533 -0.6577 0.6577 0.7533 -8.9003 64.501)" class="st7" cx="81.52" cy="44.11" rx="0.78" ry="0.6"/>
</g>
<g>
	<polygon class="st8" points="82.38,14.77 94,6 96,12 	"/>
	<polygon class="st8" points="80.52,12.75 92.39,10.38 90.19,5.1 	"/>
</g>
<g>
	<polygon class="st8" points="83.38,42.1 95,50.87 97,44.87 	"/>
	<polygon class="st8" points="81.52,44.12 93.39,46.49 91.19,51.77 	"/>
</g>
</svg>
