<?xml version="1.0" encoding="utf-8"?>
<!-- Generator: Adobe Illustrator 25.2.1, SVG Export Plug-In . SVG Version: 6.00 Build 0)  -->
<svg version="1.1" id="Layer_1" xmlns="http://www.w3.org/2000/svg" xmlns:xlink="http://www.w3.org/1999/xlink" x="0px" y="0px"
	 viewBox="0 0 200 100" style="enable-background:new 0 0 200 100;" xml:space="preserve">
<style type="text/css">
	.st0{fill:#937963;stroke:#000000;stroke-miterlimit:10;}
	.st1{fill:#637E77;stroke:#000000;stroke-miterlimit:10;}
	.st2{fill:#FFFFFF;stroke:#000000;stroke-miterlimit:10;}
	.st3{fill:#BDCCD4;}
	.st4{fill:#F1E8BB;stroke:#000000;stroke-miterlimit:10;}
	.st5{fill:#637E77;}
	.st6{fill:#731224;stroke:#000000;stroke-miterlimit:10;}
	.st7{fill:#485654;stroke:#000000;stroke-miterlimit:10;}
	.st8{fill:none;stroke:#000000;stroke-miterlimit:10;}
	.st9{fill:none;stroke:#000000;stroke-width:0.5;stroke-miterlimit:10.0012;}
	.st10{opacity:0.4;fill:#FCEE21;enable-background:new    ;}
	.st11{fill:#A3A5A8;stroke:#231F20;stroke-miterlimit:10;}
	.st12{fill:#B3B4B4;stroke:#5D5E61;stroke-miterlimit:10;}
	.st13{fill:#5D5E61;}
	.st14{stroke:#5E6B69;stroke-width:0.25;stroke-miterlimit:10;}
	.st15{fill:#A3A5A8;stroke:#5D5E61;stroke-miterlimit:10;}
	.st16{fill:#231F20;stroke:#5D5E61;stroke-miterlimit:10;}
	.st17{fill:#637E77;stroke:#000000;stroke-width:0.25;stroke-miterlimit:10;}
	.st18{fill:none;stroke:#000000;stroke-width:0.25;stroke-miterlimit:10;}
	.st19{fill:#637E77;stroke:#000000;stroke-width:0.25;stroke-miterlimit:9.9996;}
	.st20{fill:none;stroke:#000000;stroke-width:0.25;stroke-miterlimit:9.9996;}
	.st21{fill:none;stroke:#D7B18F;stroke-miterlimit:10;}
	.st22{fill:#231F20;}
</style>
<path d="M151.52,90.09h-22.94v-5.83c3.83,0,7.65,0,11.48,0s7.65,0,11.48,0C151.52,86.21,151.52,88.14,151.52,90.09z"/>
<path d="M151.52,11.32h-22.94V5.49c3.83,0,7.65,0,11.48,0s7.65,0,11.48,0C151.52,7.44,151.52,9.39,151.52,11.32z"/>
<path d="M58.07,14.99H35.11V9.16c3.83,0,7.65,0,11.48,0s7.65,0,11.48,0C58.07,11.11,58.07,13.04,58.07,14.99z"/>
<rect x="15.4" y="22.15" class="st0" width="10.63" height="51.38"/>
<path d="M58.07,90.09H35.11v-5.83c3.83,0,7.65,0,11.48,0s7.65,0,11.48,0C58.07,86.21,58.07,88.14,58.07,90.09z"/>
<path class="st0" d="M122.02,87.93h-4.93v10.98c1.1,0,2.18,0,3.28,0c0.57-1.2,1.29-3.08,1.65-5.49
	C122.34,91.15,122.2,89.22,122.02,87.93z"/>
<path class="st0" d="M122.02,10.98h-4.93V0c1.1,0,2.18,0,3.28,0c0.57,1.2,1.29,3.08,1.65,5.49C122.34,7.76,122.2,9.69,122.02,10.98z
	"/>
<path class="st1" d="M154.81,86.08c-10.93,0.6-21.86,1.22-32.79,1.82V9.16c10.93,0,21.86,0,32.79,0c3.72,3.08,8.84,8.36,11.48,16.49
	c1.17,3.61,1.03,5.26,1.65,20.14c0.76,18.48,1.15,20.09,0,23.81C166.79,73.27,163.81,80.02,154.81,86.08z"/>
<path class="st1" d="M122.02,87.93c-25.69-0.6-51.38-1.22-77.07-1.82V12.83c25.69-1.22,51.38-2.44,77.07-3.67
	C122.02,35.41,122.02,61.67,122.02,87.93z"/>
<path class="st2" d="M110.54,73.27c-18.85-0.3-37.72-0.6-56.57-0.92c1.33,2.98,2.64,5.95,3.97,8.93
	c16.48,0.39,32.95,0.76,49.41,1.15C108.42,79.37,109.48,76.32,110.54,73.27z"/>
<path class="st2" d="M110.54,25.64c-19.4,0.92-38.8,1.82-58.2,2.75c1.36-3.58,2.73-7.18,4.09-10.75
	c16.94-0.39,33.89-0.76,50.83-1.15C108.34,19.54,109.44,22.59,110.54,25.64z"/>
<path class="st3" d="M85.93,108.07"/>
<polygon class="st4" points="158.8,31.8 159.03,64.66 150.46,75.19 116.28,76.61 119.59,50.49 119.1,30.31 117.95,20.94
	149.96,21.24 "/>
<polygon class="st5" points="47.05,77.92 50.23,80.45 60.67,64.01 57.48,61.48 "/>
<path class="st6" d="M-35.5-47.5"/>
<polygon class="st5" points="48.85,16.51 46.11,19.59 58.85,33.84 61.61,30.76 "/>
<polygon class="st5" points="102.8,30.29 107.85,34.3 118.28,17.86 113.22,13.85 "/>
<polygon class="st5" points="105.78,65.02 102.21,68.44 114.03,83.67 117.57,80.24 "/>
<path class="st2" d="M121.19,79.67c-4.38-2.14-8.75-4.27-13.11-6.41c0-16.49,0-32.97,0-49.46c4.38-1.52,8.75-3.05,13.11-4.57
	c2.07,7.46,4.31,18.53,4.09,32.05C125.09,63.03,123.12,72.76,121.19,79.67z"/>
<path class="st7" d="M24.85,86.08h21.74V12.83H24.85c-2.76,6.11-7.76,19.13-7.76,36.64C17.07,56.37,17.87,70.65,24.85,86.08z"/>
<line class="st8" x1="45.77" y1="74.18" x2="20.37" y2="74.18"/>
<line class="st8" x1="43.31" y1="22.89" x2="20.37" y2="22.89"/>
<path class="st2" d="M108.81,20.82"/>
<path class="st0" d="M115.45,9.16l-7.37,14.65L115.45,9.16z"/>
<path class="st6" d="M113.82,87.93l-7.37-14.65L113.82,87.93z"/>
<path class="st1" d="M54.79,75.1l55.75-1.82c0-16.49,0-32.97,0-49.46C91.96,23.22,73.37,22.6,54.79,22"/>
<path class="st2" d="M58.88,74.18c-4.93,0-9.83,0-14.76,0c-1.28-8.38-2.25-18.09-2.43-28.91c-0.14-8.15,0.19-15.64,0.78-22.38
	c4.93,0,9.83,0,14.76,0c-0.99,7.14-1.72,15.98-1.36,26.1C56.22,58.78,57.46,67.29,58.88,74.18z"/>
<path class="st2" d="M164.58,25.95c-1.56,0.94-3.12,1.86-4.69,2.8l-8.2-11.43c1.38-1.7,2.76-3.4,4.15-5.1
	c1.17,0.92,2.75,2.36,4.31,4.45C162.93,20.41,164.1,24.13,164.58,25.95z"/>
<path class="st2" d="M157.33,81.78c-1.26-1.4-2.52-2.8-3.77-4.2l7.39-12.1c1.86,0.97,3.72,1.95,5.58,2.92
	c-0.44,1.52-1.22,3.61-2.55,5.9C161.6,78.41,158.77,80.73,157.33,81.78z"/>
<path class="st2" d="M44.12,8.24"/>
<path class="st2" d="M44.12,90.67"/>
<path class="st2" d="M55.6,97.99"/>
<g>

		<ellipse transform="matrix(0.6577 -0.7533 0.7533 0.6577 37.2772 127.2967)" class="st9" cx="158.7" cy="22.63" rx="1.59" ry="2.07"/>

		<ellipse transform="matrix(0.6577 -0.7533 0.7533 0.6577 38.8544 123.5816)" class="st9" cx="155.4" cy="19.04" rx="1.06" ry="1.38"/>
</g>
<g>

		<ellipse transform="matrix(0.7533 -0.6577 0.6577 0.7533 -7.1187 123.0638)" class="st9" cx="160.47" cy="71.02" rx="2.07" ry="1.59"/>

		<ellipse transform="matrix(0.7533 -0.6577 0.6577 0.7533 -10.2875 121.7765)" class="st9" cx="157.17" cy="74.6" rx="1.38" ry="1.06"/>
</g>
<g>
	<polygon class="st10" points="158.69,22.62 179.28,7.09 182.82,17.72 	"/>
	<polygon class="st10" points="155.4,19.05 176.43,14.85 172.53,5.49 	"/>
</g>
<g>
	<polygon class="st10" points="160.47,71.04 181.05,86.58 184.6,75.95 	"/>
	<polygon class="st10" points="157.17,74.62 178.2,78.82 174.3,88.17 	"/>
</g>
<rect x="122.46" y="-25.77" class="st11" width="69.41" height="5.71"/>
<rect x="76.81" y="-30.8" class="st11" width="36.38" height="17.56"/>
<rect x="84.35" y="-68.04" class="st12" width="8.24" height="32.86"/>
<rect x="107.64" y="-58.73" class="st12" width="8.24" height="32.86"/>
<rect x="89.86" y="-22.92" class="st13" width="8.24" height="19.35"/>
<rect x="111.33" y="-58.73" class="st13" width="8.24" height="19.35"/>
<circle class="st14" cx="84.26" cy="-25.87" r="0.78"/>
<circle class="st14" cx="104.41" cy="-18.94" r="0.78"/>
<circle class="st14" cx="83.49" cy="-17.38" r="0.78"/>
<circle class="st14" cx="101.35" cy="-25.09" r="0.78"/>
<circle class="st14" cx="85.04" cy="-24.31" r="0.78"/>
<circle class="st14" cx="109.89" cy="-16.6" r="0.78"/>
<circle class="st14" cx="80.66" cy="-25.09" r="0.78"/>
<circle class="st14" cx="105.19" cy="-22.02" r="0.78"/>
<g>
	<rect x="122.49" y="-51.61" class="st15" width="30.32" height="17.11"/>
	<rect x="123.79" y="-50.3" class="st16" width="27.75" height="14.48"/>
	<g>
		<rect x="126.98" y="-49.34" class="st17" width="7.52" height="12.58"/>
		<rect x="129.88" y="-46.2" class="st18" width="1.72" height="6.29"/>
	</g>
	<g>

			<rect x="135.46" y="-46.81" transform="matrix(0.1764 -0.9843 0.9843 0.1764 159.1243 104.0675)" class="st19" width="12.58" height="7.52"/>

			<rect x="138.62" y="-43.92" transform="matrix(0.1764 -0.9843 0.9843 0.1764 159.1429 104.0762)" class="st20" width="6.29" height="1.72"/>
	</g>
	<line class="st21" x1="148.12" y1="-44.42" x2="147.26" y2="-41.68"/>
	<line class="st21" x1="148.04" y1="-47.41" x2="149.59" y2="-44.99"/>
	<line class="st21" x1="134.96" y1="-48.07" x2="136.49" y2="-45.65"/>
	<line class="st21" x1="148.04" y1="-41.12" x2="149.59" y2="-38.7"/>
	<line class="st21" x1="125.35" y1="-46.2" x2="126.9" y2="-43.78"/>
</g>
<g>
	<rect x="160.66" y="-34.96" class="st11" width="11.74" height="6.72"/>
	<circle class="st22" cx="164.75" cy="-32.91" r="1.05"/>
	<circle class="st22" cx="167.58" cy="-32.91" r="1.05"/>
	<circle class="st22" cx="170.29" cy="-32.91" r="1.05"/>
	<circle class="st22" cx="169.24" cy="-30.31" r="1.05"/>
	<circle class="st22" cx="165.8" cy="-30.31" r="1.05"/>
	<circle class="st22" cx="162.65" cy="-30.31" r="1.05"/>
</g>
</svg>
