<?xml version="1.0" encoding="utf-8"?>
<!-- Generator: Adobe Illustrator 25.2.1, SVG Export Plug-In . SVG Version: 6.00 Build 0)  -->
<svg version="1.1" id="Layer_1" xmlns="http://www.w3.org/2000/svg" xmlns:xlink="http://www.w3.org/1999/xlink" x="0px" y="0px"
	 viewBox="0 0 200 100" style="enable-background: new 0 0 200 100;" xml:space="preserve">
<style type="text/css">
  .st0 { fill: #937963; stroke: #000; stroke-miterlimit: 10; }
  .st1 { fill: #6e2405; stroke: #000; stroke-miterlimit: 10; }
  .st2 { fill: #333; stroke: #000; stroke-miterlimit: 10; }
  .st3 { fill: #bdccd4; }
  .st4 { fill: #6e2405; }
  .st5 { fill: #fff; stroke: #000; stroke-miterlimit: 10; }
  .st6 { fill: #731224; stroke: #000; stroke-miterlimit: 10; }
  .st7 { fill: none; stroke: #000; stroke-width: 0.5; stroke-miterlimit: 10.0006; }
  .st8 { opacity: 0.4; fill: #fcee21; enable-background: new; }
  .st9 { fill: #802f00; stroke: #000; stroke-miterlimit: 10; }
  .st10 { fill: #999; stroke: #000; stroke-miterlimit: 10; }
  .st11 { fill: #292424; stroke: #000; stroke-miterlimit: 10; }
  .st12 { fill: #333; stroke: #b3b3b3; stroke-miterlimit: 10; }
  .st13 { fill: #b3b3b3; stroke: #000; stroke-width: 0.5; stroke-miterlimit: 10; }
  .st14 { fill: #fff; }
  .st15 { fill: #e6e6e6; }
  .st16 { fill: none; stroke: #000; stroke-width: 0.5; stroke-miterlimit: 10; }
  .st17 { fill: #ccc; stroke: #000; stroke-width: 0.25; stroke-miterlimit: 10; }
  .st18 { stroke: #808080; stroke-width: 0.25; stroke-miterlimit: 10; }
  .st19 { stroke: #999; stroke-width: 0.25; stroke-miterlimit: 10; }
  .st20 { stroke: #666; stroke-width: 0.25; stroke-miterlimit: 10; }
</style>
<path d="M151.56,91.1h-22.98v-5.84c3.83,0,7.67,0,11.5,0s7.67,0,11.5,0C151.56,87.21,151.56,89.15,151.56,91.1z"/>
<path d="M151.56,12.2h-22.98V6.36c3.83,0,7.67,0,11.5,0s7.67,0,11.5,0C151.56,8.32,151.56,10.27,151.56,12.2z"/>
<path d="M57.95,18.72h-23v-8.69c3.83,0,7.67,0,11.5,0s7.67,0,11.5,0C57.95,12.94,57.95,15.82,57.95,18.72z"/>
<path d="M57.95,91.1h-23v-8.7c3.83,0,7.67,0,11.5,0s7.67,0,11.5,0C57.95,85.31,57.95,88.19,57.95,91.1z"/>
<path class="st0" d="M122.01,88.93h-4.93v11c1.1,0,2.18,0,3.28,0c0.57-1.21,1.3-3.09,1.65-5.5
	C122.33,92.16,122.19,90.23,122.01,88.93z"/>
<path class="st0" d="M122.01,11.86h-4.93v-11c1.1,0,2.18,0,3.28,0c0.57,1.21,1.3,3.09,1.65,5.5
	C122.33,8.64,122.19,10.57,122.01,11.86z"/>
<path class="st1" d="M155.72,87.1c-10.95,0.6-21.9,1.22-32.85,1.83V10.05c10.95,0,21.9,0,32.85,0c3.73,3.09,8.86,8.38,11.5,16.52
	c1.17,3.62,1.03,5.27,1.65,20.18c0.76,18.51,1.15,20.12,0,23.85C167.72,74.27,164.74,81.03,155.72,87.1z"/>
<path class="st1" d="M122.01,88.93c-25.73-0.6-51.46-1.22-77.19-1.83v-73.4c25.73-1.22,51.46-2.45,77.19-3.67
	C122.01,36.34,122.01,62.64,122.01,88.93z"/>
<path class="st2" d="M110.52,74.26c-18.88-0.3-37.78-0.6-56.66-0.92c1.33,2.98,2.64,5.96,3.98,8.94c16.5,0.39,33.01,0.76,49.49,1.15
	C108.39,80.36,109.45,77.31,110.52,74.26z"/>
<path class="st2" d="M110.52,26.54c-19.43,0.92-38.86,1.83-58.29,2.75c1.37-3.58,2.73-7.19,4.1-10.77
	c16.96-0.39,33.95-0.76,50.91-1.15C108.31,20.44,109.41,23.49,110.52,26.54z"/>
<path class="st3" d="M92.96,106.6"/>
<polygon class="st4" points="102.76,31.21 107.82,35.22 118.27,18.75 113.19,14.74 "/>
<polygon class="st4" points="105.74,65.99 102.17,69.41 114.01,84.68 117.56,81.23 "/>
<path class="st2" d="M121.18,80.67c-4.38-2.15-8.77-4.28-13.13-6.42c0-16.52,0-33.02,0-49.55c4.38-1.53,8.77-3.05,13.13-4.58
	c2.08,7.47,4.31,18.56,4.1,32.1C125.08,64,123.11,73.74,121.18,80.67z"/>
<path class="st5" d="M108.78,21.71"/>
<path class="st0" d="M115.43,10.04l-7.38,14.68L115.43,10.04z"/>
<path class="st6" d="M113.8,88.93l-7.38-14.68L113.8,88.93z"/>
<path class="st5" d="M164.64,26.86c-1.56,0.94-3.12,1.86-4.7,2.8l-8.22-11.45c1.38-1.7,2.77-3.41,4.15-5.11
	c1.17,0.92,2.75,2.36,4.31,4.45C162.99,21.31,164.16,25.03,164.64,26.86z"/>
<path class="st5" d="M157.38,82.78c-1.26-1.4-2.52-2.8-3.78-4.21l7.4-12.12c1.86,0.98,3.73,1.95,5.59,2.93
	c-0.44,1.53-1.22,3.62-2.56,5.91C161.66,79.41,158.82,81.73,157.38,82.78z"/>
<path class="st5" d="M43.99,9.11"/>
<path class="st5" d="M43.99,91.69"/>
<path class="st5" d="M62.57,96.51"/>
<g>

		<ellipse transform="matrix(0.6577 -0.7533 0.7533 0.6577 36.6196 127.6411)" class="st7" cx="158.75" cy="23.53" rx="1.6" ry="2.08"/>

		<ellipse transform="matrix(0.6577 -0.7533 0.7533 0.6577 38.1929 123.922)" class="st7" cx="155.45" cy="19.94" rx="1.06" ry="1.38"/>
</g>
<g>

		<ellipse transform="matrix(0.7533 -0.6577 0.6577 0.7533 -7.7538 123.3407)" class="st7" cx="160.53" cy="72.01" rx="2.08" ry="1.6"/>

		<ellipse transform="matrix(0.7533 -0.6577 0.6577 0.7533 -10.9273 122.0515)" class="st7" cx="157.22" cy="75.59" rx="1.38" ry="1.06"/>
</g>
<g>
	<polygon class="st8" points="158.75,23.52 179.37,7.96 182.92,18.61 	"/>
	<polygon class="st8" points="155.45,19.94 176.51,15.73 172.61,6.36 	"/>
</g>
<g>
	<polygon class="st8" points="160.52,72.02 181.14,87.59 184.69,76.94 	"/>
	<polygon class="st8" points="157.22,75.61 178.29,79.81 174.38,89.18 	"/>
</g>
<rect x="14.99" y="19.92" transform="matrix(0.943 -0.3329 0.3329 0.943 -7.4178 12.2019)" class="st1" width="33.81" height="15.65"/>
<rect x="14.99" y="66" transform="matrix(0.943 0.3329 -0.3329 0.943 26.3958 -6.4084)" class="st1" width="33.81" height="15.65"/>
<rect x="-6.41" y="42.56" transform="matrix(6.123234e-17 -1 1 6.123234e-17 -32.3873 68.3949)" class="st1" width="48.84" height="15.65"/>
<path class="st9" d="M54.67,76.09l55.85-1.83c0-16.52,0-33.02,0-49.55c-18.62-0.6-37.23-1.22-55.85-1.83l-28.84,3.09v48.84
	L54.67,76.09z"/>
<ellipse class="st10" cx="9.2" cy="67.16" rx="0.98" ry="3.03"/>
<ellipse class="st10" cx="9.2" cy="61.7" rx="0.98" ry="3.03"/>
<polygon class="st11" points="136.21,20.43 136.21,76.09 151.51,75.46 160.1,64.92 159.87,32 151.01,21.42 "/>
<path class="st12" d="M145.58,54.6h5.87c3.28,0,5.96-2.68,5.96-5.96v0c0-3.28-2.68-5.96-5.96-5.96h-5.87
	c-3.28,0-5.96,2.68-5.96,5.96v0C139.62,51.91,142.3,54.6,145.58,54.6z"/>
<polyline class="st13" points="135.87,45.05 157.76,42.67 157.76,54.6 135.87,51.02 "/>
<rect x="25.83" y="40.38" class="st14" width="84.04" height="4.58"/>
<rect x="25.83" y="52.31" class="st15" width="84.04" height="4.58"/>
<path class="st2" d="M52.18,62.77L52.18,62.77c2.3,0,4.19-1.88,4.19-4.19V37.94c0-2.3-1.88-4.19-4.19-4.19h0
	c-2.3,0-4.19,1.88-4.19,4.19v20.64C47.99,60.88,49.88,62.77,52.18,62.77z"/>
<line class="st16" x1="150.81" y1="45.38" x2="150.81" y2="51.88"/>
<line class="st16" x1="147.75" y1="45.6" x2="147.75" y2="51.11"/>
<line class="st16" x1="144.49" y1="45.81" x2="144.49" y2="50.9"/>
<ellipse class="st17" cx="148.15" cy="58.19" rx="2.42" ry="3.93"/>
<circle class="st18" cx="148.15" cy="60.61" r="2.42"/>
<ellipse class="st17" cx="152.98" cy="58.44" rx="2.42" ry="3.93"/>
<circle class="st19" cx="152.98" cy="60.86" r="2.42"/>
<ellipse class="st17" cx="143.32" cy="57.99" rx="2.42" ry="3.93"/>
<circle class="st18" cx="143.32" cy="60.41" r="2.42"/>
<ellipse class="st17" cx="148.51" cy="38.84" rx="2.42" ry="3.93"/>
<circle class="st20" cx="148.51" cy="36.42" r="2.42"/>
<ellipse class="st17" cx="153.34" cy="38.58" rx="2.42" ry="3.93"/>
<circle class="st18" cx="153.34" cy="36.17" r="2.42"/>
<ellipse class="st17" cx="143.68" cy="39.03" rx="2.42" ry="3.93"/>
<circle class="st20" cx="143.68" cy="36.62" r="2.42"/>
</svg>
