<?xml version="1.0" encoding="utf-8"?>
<!-- Generator: Adobe Illustrator 25.2.1, SVG Export Plug-In . SVG Version: 6.00 Build 0)  -->
<svg version="1.1" id="Layer_1" xmlns="http://www.w3.org/2000/svg" xmlns:xlink="http://www.w3.org/1999/xlink" x="0px" y="0px"
	 viewBox="0 0 1200 800" style="enable-background: new 0 0 1200 800;" xml:space="preserve">
<style type="text/css">
  .st0 { opacity: 0.13; stroke: #000; stroke-miterlimit: 10; }
  .st1 { fill: #a67c52; stroke: #000; stroke-miterlimit: 10; }
  .st2 { fill: #6c301e; stroke: #000; stroke-miterlimit: 10; }
  .st3 { opacity: 0.01; }
  .st4 { opacity: 0.1091; }
  .st5 { fill: none; stroke: #000; stroke-miterlimit: 10; }
  .st6 { fill: #659357; stroke: #000; stroke-miterlimit: 10; }
  .st7 { fill: #3e6549; stroke: #000; stroke-miterlimit: 10; }
  .st8 { fill: #8eb936; stroke: #000; stroke-miterlimit: 10; }
  .st9 { fill: #004b23; stroke: #000; stroke-miterlimit: 10; }
  .st10 { fill: #bccd30; stroke: #000; stroke-miterlimit: 10; }
</style>
<path class="st0" d="M1197.94,179.57c-137.35-19.58-290.1-34.47-456.21-40.04C459.38,130.06,208.88,149.88,0,179.57
	C0,118.24,0,56.91,0-4.41h1197.94V179.57z"/>
<g>
	<rect x="860.16" y="675.21" class="st1" width="341" height="121.88"/>
	<g>
		<path class="st2" d="M1176.94,803.36l-2.37-57.31c1-0.02,2.56-0.07,4.48-0.19c2.12-0.13,2.31-0.2,3.09-0.13
			c1.92,0.17,2.31,0.72,4.68,1.08c1.21,0.18,1.88,0.29,2.79,0.19c2.05-0.22,2.71-1.18,4.56-1.76c0.98-0.31,2.49-0.59,4.61-0.19
			c0.79,19.1,1.58,38.21,2.37,57.31L1176.94,803.36z"/>
		<path class="st2" d="M1179.05,745.86c1.07,30.9,1.07,30.9,1.07,30.9l0,0"/>
		<path class="st2" d="M1189.44,767.18c0.35,34.67,0.35,34.67,0.35,34.67"/>
		<path class="st2" d="M1194.29,746.75c0.35,34.67,0.35,34.67,0.35,34.67"/>
	</g>
	<g>
		<path class="st2" d="M1154.84,803.36l-2.37-57.31c1-0.02,2.56-0.07,4.48-0.19c2.12-0.13,2.31-0.2,3.09-0.13
			c1.92,0.17,2.31,0.72,4.68,1.08c1.21,0.18,1.88,0.29,2.79,0.19c2.05-0.22,2.71-1.18,4.56-1.76c0.98-0.31,2.49-0.59,4.61-0.19
			c0.79,19.1,1.58,38.21,2.37,57.31L1154.84,803.36z"/>
		<path class="st2" d="M1156.95,745.86c1.07,30.9,1.07,30.9,1.07,30.9l0,0"/>
		<path class="st2" d="M1167.34,767.18c0.35,34.67,0.35,34.67,0.35,34.67"/>
		<path class="st2" d="M1172.19,746.75c0.35,34.67,0.35,34.67,0.35,34.67"/>
	</g>
	<g>
		<path class="st2" d="M1137.91,803.36l-2.37-57.31c1-0.02,2.56-0.07,4.48-0.19c2.12-0.13,2.31-0.2,3.09-0.13
			c1.92,0.17,2.31,0.72,4.68,1.08c1.21,0.18,1.88,0.29,2.79,0.19c2.05-0.22,2.71-1.18,4.56-1.76c0.98-0.31,2.49-0.59,4.61-0.19
			c0.79,19.1,1.58,38.21,2.37,57.31L1137.91,803.36z"/>
		<path class="st2" d="M1140.03,745.86c1.07,30.9,1.07,30.9,1.07,30.9l0,0"/>
		<path class="st2" d="M1150.42,767.18c0.35,34.67,0.35,34.67,0.35,34.67"/>
		<path class="st2" d="M1155.26,746.75c0.35,34.67,0.35,34.67,0.35,34.67"/>
	</g>
	<g>
		<path class="st2" d="M1124.62,803.36l-2.37-57.31c1-0.02,2.56-0.07,4.48-0.19c2.12-0.13,2.31-0.2,3.09-0.13
			c1.92,0.17,2.31,0.72,4.68,1.08c1.21,0.18,1.88,0.29,2.79,0.19c2.05-0.22,2.71-1.18,4.56-1.76c0.98-0.31,2.49-0.59,4.61-0.19
			c0.79,19.1,1.58,38.21,2.37,57.31L1124.62,803.36z"/>
		<path class="st2" d="M1126.74,745.86c1.07,30.9,1.07,30.9,1.07,30.9l0,0"/>
		<path class="st2" d="M1137.13,767.18c0.35,34.67,0.35,34.67,0.35,34.67"/>
		<path class="st2" d="M1141.97,746.75c0.35,34.67,0.35,34.67,0.35,34.67"/>
	</g>
	<g>
		<path class="st2" d="M1105.38,803.36l-2.37-57.31c1-0.02,2.56-0.07,4.48-0.19c2.12-0.13,2.31-0.2,3.09-0.13
			c1.92,0.17,2.31,0.72,4.68,1.08c1.21,0.18,1.88,0.29,2.79,0.19c2.05-0.22,2.71-1.18,4.56-1.76c0.98-0.31,2.49-0.59,4.61-0.19
			c0.79,19.1,1.58,38.21,2.37,57.31L1105.38,803.36z"/>
		<path class="st2" d="M1107.49,745.86c1.07,30.9,1.07,30.9,1.07,30.9l0,0"/>
		<path class="st2" d="M1117.88,767.18c0.35,34.67,0.35,34.67,0.35,34.67"/>
		<path class="st2" d="M1122.73,746.75c0.35,34.67,0.35,34.67,0.35,34.67"/>
	</g>
	<g>
		<path class="st2" d="M1083.27,806.02l-2.37-57.31c1-0.02,2.56-0.07,4.48-0.19c2.12-0.13,2.31-0.2,3.09-0.13
			c1.92,0.17,2.31,0.72,4.68,1.08c1.21,0.18,1.88,0.29,2.79,0.19c2.05-0.22,2.71-1.18,4.56-1.76c0.98-0.31,2.49-0.59,4.61-0.19
			c0.79,19.1,1.58,38.21,2.37,57.31L1083.27,806.02z"/>
		<path class="st2" d="M1085.39,748.52c1.07,30.9,1.07,30.9,1.07,30.9l0,0"/>
		<path class="st2" d="M1095.78,769.84c0.35,34.67,0.35,34.67,0.35,34.67"/>
		<path class="st2" d="M1100.62,749.41c0.35,34.67,0.35,34.67,0.35,34.67"/>
	</g>
	<g>
		<path class="st2" d="M1065.55,806.02l-2.37-57.31c1-0.02,2.56-0.07,4.48-0.19c2.12-0.13,2.31-0.2,3.09-0.13
			c1.92,0.17,2.31,0.72,4.68,1.08c1.21,0.18,1.88,0.29,2.79,0.19c2.05-0.22,2.71-1.18,4.56-1.76c0.98-0.31,2.49-0.59,4.61-0.19
			c0.79,19.1,1.58,38.21,2.37,57.31L1065.55,806.02z"/>
		<path class="st2" d="M1067.66,748.52c1.07,30.9,1.07,30.9,1.07,30.9l0,0"/>
		<path class="st2" d="M1078.05,769.84c0.35,34.67,0.35,34.67,0.35,34.67"/>
		<path class="st2" d="M1082.9,749.41c0.35,34.67,0.35,34.67,0.35,34.67"/>
	</g>
	<g>
		<path class="st2" d="M1047.82,806.02l-2.37-57.31c1-0.02,2.56-0.07,4.48-0.19c2.12-0.13,2.31-0.2,3.09-0.13
			c1.92,0.17,2.31,0.72,4.68,1.08c1.21,0.18,1.88,0.29,2.79,0.19c2.05-0.22,2.71-1.18,4.56-1.76c0.98-0.31,2.49-0.59,4.61-0.19
			c0.79,19.1,1.58,38.21,2.37,57.31L1047.82,806.02z"/>
		<path class="st2" d="M1049.93,748.52c1.07,30.9,1.07,30.9,1.07,30.9l0,0"/>
		<path class="st2" d="M1060.32,769.84c0.35,34.67,0.35,34.67,0.35,34.67"/>
		<path class="st2" d="M1065.17,749.41c0.35,34.67,0.35,34.67,0.35,34.67"/>
	</g>
	<g>
		<path class="st2" d="M1034.53,806.02l-2.37-57.31c1-0.02,2.56-0.07,4.48-0.19c2.12-0.13,2.31-0.2,3.09-0.13
			c1.92,0.17,2.31,0.72,4.68,1.08c1.21,0.18,1.88,0.29,2.79,0.19c2.05-0.22,2.71-1.18,4.56-1.76c0.98-0.31,2.49-0.59,4.61-0.19
			c0.79,19.1,1.58,38.21,2.37,57.31L1034.53,806.02z"/>
		<path class="st2" d="M1036.64,748.52c1.07,30.9,1.07,30.9,1.07,30.9l0,0"/>
		<path class="st2" d="M1047.03,769.84c0.35,34.67,0.35,34.67,0.35,34.67"/>
		<path class="st2" d="M1051.88,749.41c0.35,34.67,0.35,34.67,0.35,34.67"/>
	</g>
	<g>
		<path class="st2" d="M998.25,802.03l-2.37-57.31c1-0.02,2.56-0.07,4.48-0.19c2.12-0.13,2.31-0.2,3.09-0.13
			c1.92,0.17,2.31,0.72,4.68,1.08c1.21,0.18,1.88,0.29,2.79,0.19c2.05-0.22,2.71-1.18,4.56-1.76c0.98-0.31,2.49-0.59,4.61-0.19
			c0.79,19.1,1.58,38.21,2.37,57.31L998.25,802.03z"/>
		<path class="st2" d="M1000.36,744.53c1.07,30.9,1.07,30.9,1.07,30.9l0,0"/>
		<path class="st2" d="M1010.75,765.85c0.35,34.67,0.35,34.67,0.35,34.67"/>
		<path class="st2" d="M1015.6,745.42c0.35,34.67,0.35,34.67,0.35,34.67"/>
	</g>
	<g>
		<path class="st2" d="M976.14,802.03l-2.37-57.31c1-0.02,2.56-0.07,4.48-0.19c2.12-0.13,2.31-0.2,3.09-0.13
			c1.92,0.17,2.31,0.72,4.68,1.08c1.21,0.18,1.88,0.29,2.79,0.19c2.05-0.22,2.71-1.18,4.56-1.76c0.98-0.31,2.49-0.59,4.61-0.19
			c0.79,19.1,1.58,38.21,2.37,57.31L976.14,802.03z"/>
		<path class="st2" d="M978.26,744.53c1.07,30.9,1.07,30.9,1.07,30.9l0,0"/>
		<path class="st2" d="M988.65,765.85c0.35,34.67,0.35,34.67,0.35,34.67"/>
		<path class="st2" d="M993.49,745.42c0.35,34.67,0.35,34.67,0.35,34.67"/>
	</g>
	<g>
		<path class="st2" d="M959.22,802.03l-2.37-57.31c1-0.02,2.56-0.07,4.48-0.19c2.12-0.13,2.31-0.2,3.09-0.13
			c1.92,0.17,2.31,0.72,4.68,1.08c1.21,0.18,1.88,0.29,2.79,0.19c2.05-0.22,2.71-1.18,4.56-1.76c0.98-0.31,2.49-0.59,4.61-0.19
			c0.79,19.1,1.58,38.21,2.37,57.31L959.22,802.03z"/>
		<path class="st2" d="M961.33,744.53c1.07,30.9,1.07,30.9,1.07,30.9l0,0"/>
		<path class="st2" d="M971.73,765.85c0.35,34.67,0.35,34.67,0.35,34.67"/>
		<path class="st2" d="M976.57,745.42c0.35,34.67,0.35,34.67,0.35,34.67"/>
	</g>
	<g>
		<path class="st2" d="M945.93,802.03l-2.37-57.31c1-0.02,2.56-0.07,4.48-0.19c2.12-0.13,2.31-0.2,3.09-0.13
			c1.92,0.17,2.31,0.72,4.68,1.08c1.21,0.18,1.88,0.29,2.79,0.19c2.05-0.22,2.71-1.18,4.56-1.76c0.98-0.31,2.49-0.59,4.61-0.19
			c0.79,19.1,1.58,38.21,2.37,57.31L945.93,802.03z"/>
		<path class="st2" d="M948.04,744.53c1.07,30.9,1.07,30.9,1.07,30.9l0,0"/>
		<path class="st2" d="M958.43,765.85c0.35,34.67,0.35,34.67,0.35,34.67"/>
		<path class="st2" d="M963.28,745.42c0.35,34.67,0.35,34.67,0.35,34.67"/>
	</g>
	<g>
		<path class="st2" d="M926.68,802.03l-2.37-57.31c1-0.02,2.56-0.07,4.48-0.19c2.12-0.13,2.31-0.2,3.09-0.13
			c1.92,0.17,2.31,0.72,4.68,1.08c1.21,0.18,1.88,0.29,2.79,0.19c2.05-0.22,2.71-1.18,4.56-1.76c0.98-0.31,2.49-0.59,4.61-0.19
			c0.79,19.1,1.58,38.21,2.37,57.31L926.68,802.03z"/>
		<path class="st2" d="M928.8,744.53c1.07,30.9,1.07,30.9,1.07,30.9l0,0"/>
		<path class="st2" d="M939.19,765.85c0.35,34.67,0.35,34.67,0.35,34.67"/>
		<path class="st2" d="M944.03,745.42c0.35,34.67,0.35,34.67,0.35,34.67"/>
	</g>
	<g>
		<path class="st2" d="M904.58,804.69l-2.37-57.31c1-0.02,2.56-0.07,4.48-0.19c2.12-0.13,2.31-0.2,3.09-0.13
			c1.92,0.17,2.31,0.72,4.68,1.08c1.21,0.18,1.88,0.29,2.79,0.19c2.05-0.22,2.71-1.18,4.56-1.76c0.98-0.31,2.49-0.59,4.61-0.19
			c0.79,19.1,1.58,38.21,2.37,57.31L904.58,804.69z"/>
		<path class="st2" d="M906.69,747.19c1.07,30.9,1.07,30.9,1.07,30.9l0,0"/>
		<path class="st2" d="M917.09,768.51c0.35,34.67,0.35,34.67,0.35,34.67"/>
		<path class="st2" d="M921.93,748.08c0.35,34.67,0.35,34.67,0.35,34.67"/>
	</g>
	<g>
		<path class="st2" d="M886.85,804.69l-2.37-57.31c1-0.02,2.56-0.07,4.48-0.19c2.12-0.13,2.31-0.2,3.09-0.13
			c1.92,0.17,2.31,0.72,4.68,1.08c1.21,0.18,1.88,0.29,2.79,0.19c2.05-0.22,2.71-1.18,4.56-1.76c0.98-0.31,2.49-0.59,4.61-0.19
			c0.79,19.1,1.58,38.21,2.37,57.31L886.85,804.69z"/>
		<path class="st2" d="M888.97,747.19c1.07,30.9,1.07,30.9,1.07,30.9l0,0"/>
		<path class="st2" d="M899.36,768.51c0.35,34.67,0.35,34.67,0.35,34.67"/>
		<path class="st2" d="M904.2,748.08c0.35,34.67,0.35,34.67,0.35,34.67"/>
	</g>
	<g>
		<path class="st2" d="M869.13,804.69l-2.37-57.31c1-0.02,2.56-0.07,4.48-0.19c2.12-0.13,2.31-0.2,3.09-0.13
			c1.92,0.17,2.31,0.72,4.68,1.08c1.21,0.18,1.88,0.29,2.79,0.19c2.05-0.22,2.71-1.18,4.56-1.76c0.98-0.31,2.49-0.59,4.61-0.19
			c0.79,19.1,1.58,38.21,2.37,57.31L869.13,804.69z"/>
		<path class="st2" d="M871.24,747.19c1.07,30.9,1.07,30.9,1.07,30.9l0,0"/>
		<path class="st2" d="M881.63,768.51c0.35,34.67,0.35,34.67,0.35,34.67"/>
		<path class="st2" d="M886.48,748.08c0.35,34.67,0.35,34.67,0.35,34.67"/>
	</g>
	<g>
		<path class="st2" d="M855.83,804.69l-2.37-57.31c1-0.02,2.56-0.07,4.48-0.19c2.12-0.13,2.31-0.2,3.09-0.13
			c1.92,0.17,2.31,0.72,4.68,1.08c1.21,0.18,1.88,0.29,2.79,0.19c2.05-0.22,2.71-1.18,4.56-1.76c0.98-0.31,2.49-0.59,4.61-0.19
			c0.79,19.1,1.58,38.21,2.37,57.31L855.83,804.69z"/>
		<path class="st2" d="M857.95,747.19c1.07,30.9,1.07,30.9,1.07,30.9l0,0"/>
		<path class="st2" d="M868.34,768.51c0.35,34.67,0.35,34.67,0.35,34.67"/>
		<path class="st2" d="M873.18,748.08c0.35,34.67,0.35,34.67,0.35,34.67"/>
	</g>
	<g>
		<path class="st2" d="M1187.02,725.23l-2.37-57.31c1-0.02,2.56-0.07,4.48-0.19c2.12-0.13,2.31-0.2,3.09-0.13
			c1.92,0.17,2.31,0.72,4.68,1.08c1.21,0.18,1.88,0.29,2.79,0.19c2.05-0.22,2.71-1.18,4.56-1.76c0.98-0.31,2.49-0.59,4.61-0.19
			c0.79,19.1,1.58,38.21,2.37,57.31L1187.02,725.23z"/>
		<path class="st2" d="M1189.13,667.73c1.07,30.9,1.07,30.9,1.07,30.9l0,0"/>
		<path class="st2" d="M1199.52,689.05c0.35,34.67,0.35,34.67,0.35,34.67"/>
		<path class="st2" d="M1204.37,668.63c0.35,34.67,0.35,34.67,0.35,34.67"/>
	</g>
	<g>
		<path class="st2" d="M1164.92,725.23l-2.37-57.31c1-0.02,2.56-0.07,4.48-0.19c2.12-0.13,2.31-0.2,3.09-0.13
			c1.92,0.17,2.31,0.72,4.68,1.08c1.21,0.18,1.88,0.29,2.79,0.19c2.05-0.22,2.71-1.18,4.56-1.76c0.98-0.31,2.49-0.59,4.61-0.19
			c0.79,19.1,1.58,38.21,2.37,57.31L1164.92,725.23z"/>
		<path class="st2" d="M1167.03,667.73c1.07,30.9,1.07,30.9,1.07,30.9l0,0"/>
		<path class="st2" d="M1177.42,689.05c0.35,34.67,0.35,34.67,0.35,34.67"/>
		<path class="st2" d="M1182.26,668.63c0.35,34.67,0.35,34.67,0.35,34.67"/>
	</g>
	<g>
		<path class="st2" d="M1147.99,725.23l-2.37-57.31c1-0.02,2.56-0.07,4.48-0.19c2.12-0.13,2.31-0.2,3.09-0.13
			c1.92,0.17,2.31,0.72,4.68,1.08c1.21,0.18,1.88,0.29,2.79,0.19c2.05-0.22,2.71-1.18,4.56-1.76c0.98-0.31,2.49-0.59,4.61-0.19
			c0.79,19.1,1.58,38.21,2.37,57.31L1147.99,725.23z"/>
		<path class="st2" d="M1150.11,667.73c1.07,30.9,1.07,30.9,1.07,30.9l0,0"/>
		<path class="st2" d="M1160.5,689.05c0.35,34.67,0.35,34.67,0.35,34.67"/>
		<path class="st2" d="M1165.34,668.63c0.35,34.67,0.35,34.67,0.35,34.67"/>
	</g>
	<g>
		<path class="st2" d="M1134.7,725.23l-2.37-57.31c1-0.02,2.56-0.07,4.48-0.19c2.12-0.13,2.31-0.2,3.09-0.13
			c1.92,0.17,2.31,0.72,4.68,1.08c1.21,0.18,1.88,0.29,2.79,0.19c2.05-0.22,2.71-1.18,4.56-1.76c0.98-0.31,2.49-0.59,4.61-0.19
			c0.79,19.1,1.58,38.21,2.37,57.31L1134.7,725.23z"/>
		<path class="st2" d="M1136.81,667.73c1.07,30.9,1.07,30.9,1.07,30.9l0,0"/>
		<path class="st2" d="M1147.21,689.05c0.35,34.67,0.35,34.67,0.35,34.67"/>
		<path class="st2" d="M1152.05,668.63c0.35,34.67,0.35,34.67,0.35,34.67"/>
	</g>
	<g>
		<path class="st2" d="M1115.46,725.23l-2.37-57.31c1-0.02,2.56-0.07,4.48-0.19c2.12-0.13,2.31-0.2,3.09-0.13
			c1.92,0.17,2.31,0.72,4.68,1.08c1.21,0.18,1.88,0.29,2.79,0.19c2.05-0.22,2.71-1.18,4.56-1.76c0.98-0.31,2.49-0.59,4.61-0.19
			c0.79,19.1,1.58,38.21,2.37,57.31L1115.46,725.23z"/>
		<path class="st2" d="M1117.57,667.73c1.07,30.9,1.07,30.9,1.07,30.9l0,0"/>
		<path class="st2" d="M1127.96,689.05c0.35,34.67,0.35,34.67,0.35,34.67"/>
		<path class="st2" d="M1132.81,668.63c0.35,34.67,0.35,34.67,0.35,34.67"/>
	</g>
	<g>
		<path class="st2" d="M1093.35,727.89l-2.37-57.31c1-0.02,2.56-0.07,4.48-0.19c2.12-0.13,2.31-0.2,3.09-0.13
			c1.92,0.17,2.31,0.72,4.68,1.08c1.21,0.18,1.88,0.29,2.79,0.19c2.05-0.22,2.71-1.18,4.56-1.76c0.98-0.31,2.49-0.59,4.61-0.19
			c0.79,19.1,1.58,38.21,2.37,57.31L1093.35,727.89z"/>
		<path class="st2" d="M1095.47,670.39c1.07,30.9,1.07,30.9,1.07,30.9l0,0"/>
		<path class="st2" d="M1105.86,691.71c0.35,34.67,0.35,34.67,0.35,34.67"/>
		<path class="st2" d="M1110.7,671.29c0.35,34.67,0.35,34.67,0.35,34.67"/>
	</g>
	<g>
		<path class="st2" d="M1075.62,727.89l-2.37-57.31c1-0.02,2.56-0.07,4.48-0.19c2.12-0.13,2.31-0.2,3.09-0.13
			c1.92,0.17,2.31,0.72,4.68,1.08c1.21,0.18,1.88,0.29,2.79,0.19c2.05-0.22,2.71-1.18,4.56-1.76c0.98-0.31,2.49-0.59,4.61-0.19
			c0.79,19.1,1.58,38.21,2.37,57.31L1075.62,727.89z"/>
		<path class="st2" d="M1077.74,670.39c1.07,30.9,1.07,30.9,1.07,30.9l0,0"/>
		<path class="st2" d="M1088.13,691.71c0.35,34.67,0.35,34.67,0.35,34.67"/>
		<path class="st2" d="M1092.97,671.29c0.35,34.67,0.35,34.67,0.35,34.67"/>
	</g>
	<g>
		<path class="st2" d="M1057.9,727.89l-2.37-57.31c1-0.02,2.56-0.07,4.48-0.19c2.12-0.13,2.31-0.2,3.09-0.13
			c1.92,0.17,2.31,0.72,4.68,1.08c1.21,0.18,1.88,0.29,2.79,0.19c2.05-0.22,2.71-1.18,4.56-1.76c0.98-0.31,2.49-0.59,4.61-0.19
			c0.79,19.1,1.58,38.21,2.37,57.31L1057.9,727.89z"/>
		<path class="st2" d="M1060.01,670.39c1.07,30.9,1.07,30.9,1.07,30.9l0,0"/>
		<path class="st2" d="M1070.4,691.71c0.35,34.67,0.35,34.67,0.35,34.67"/>
		<path class="st2" d="M1075.25,671.29c0.35,34.67,0.35,34.67,0.35,34.67"/>
	</g>
	<g>
		<path class="st2" d="M1044.61,727.89l-2.37-57.31c1-0.02,2.56-0.07,4.48-0.19c2.12-0.13,2.31-0.2,3.09-0.13
			c1.92,0.17,2.31,0.72,4.68,1.08c1.21,0.18,1.88,0.29,2.79,0.19c2.05-0.22,2.71-1.18,4.56-1.76c0.98-0.31,2.49-0.59,4.61-0.19
			c0.79,19.1,1.58,38.21,2.37,57.31L1044.61,727.89z"/>
		<path class="st2" d="M1046.72,670.39c1.07,30.9,1.07,30.9,1.07,30.9l0,0"/>
		<path class="st2" d="M1057.11,691.71c0.35,34.67,0.35,34.67,0.35,34.67"/>
		<path class="st2" d="M1061.95,671.29c0.35,34.67,0.35,34.67,0.35,34.67"/>
	</g>
	<g>
		<path class="st2" d="M1062.85,726.56l-2.37-57.31c1-0.02,2.56-0.07,4.48-0.19c2.12-0.13,2.31-0.2,3.09-0.13
			c1.92,0.17,2.31,0.72,4.68,1.08c1.21,0.18,1.88,0.29,2.79,0.19c2.05-0.22,2.71-1.18,4.56-1.76c0.98-0.31,2.49-0.59,4.61-0.19
			c0.79,19.1,1.58,38.21,2.37,57.31L1062.85,726.56z"/>
		<path class="st2" d="M1064.96,669.06c1.07,30.9,1.07,30.9,1.07,30.9l0,0"/>
		<path class="st2" d="M1075.36,690.38c0.35,34.67,0.35,34.67,0.35,34.67"/>
		<path class="st2" d="M1080.2,669.96c0.35,34.67,0.35,34.67,0.35,34.67"/>
	</g>
	<g>
		<path class="st2" d="M1040.75,726.56l-2.37-57.31c1-0.02,2.56-0.07,4.48-0.19c2.12-0.13,2.31-0.2,3.09-0.13
			c1.92,0.17,2.31,0.72,4.68,1.08c1.21,0.18,1.88,0.29,2.79,0.19c2.05-0.22,2.71-1.18,4.56-1.76c0.98-0.31,2.49-0.59,4.61-0.19
			c0.79,19.1,1.58,38.21,2.37,57.31L1040.75,726.56z"/>
		<path class="st2" d="M1042.86,669.06c1.07,30.9,1.07,30.9,1.07,30.9l0,0"/>
		<path class="st2" d="M1053.25,690.38c0.35,34.67,0.35,34.67,0.35,34.67"/>
		<path class="st2" d="M1058.1,669.96c0.35,34.67,0.35,34.67,0.35,34.67"/>
	</g>
	<g>
		<path class="st2" d="M1023.83,726.56l-2.37-57.31c1-0.02,2.56-0.07,4.48-0.19c2.12-0.13,2.31-0.2,3.09-0.13
			c1.92,0.17,2.31,0.72,4.68,1.08c1.21,0.18,1.88,0.29,2.79,0.19c2.05-0.22,2.71-1.18,4.56-1.76c0.98-0.31,2.49-0.59,4.61-0.19
			c0.79,19.1,1.58,38.21,2.37,57.31L1023.83,726.56z"/>
		<path class="st2" d="M1025.94,669.06c1.07,30.9,1.07,30.9,1.07,30.9l0,0"/>
		<path class="st2" d="M1036.33,690.38c0.35,34.67,0.35,34.67,0.35,34.67"/>
		<path class="st2" d="M1041.18,669.96c0.35,34.67,0.35,34.67,0.35,34.67"/>
	</g>
	<g>
		<path class="st2" d="M1010.53,726.56l-2.37-57.31c1-0.02,2.56-0.07,4.48-0.19c2.12-0.13,2.31-0.2,3.09-0.13
			c1.92,0.17,2.31,0.72,4.68,1.08c1.21,0.18,1.88,0.29,2.79,0.19c2.05-0.22,2.71-1.18,4.56-1.76c0.98-0.31,2.49-0.59,4.61-0.19
			c0.79,19.1,1.58,38.21,2.37,57.31L1010.53,726.56z"/>
		<path class="st2" d="M1012.65,669.06c1.07,30.9,1.07,30.9,1.07,30.9l0,0"/>
		<path class="st2" d="M1023.04,690.38c0.35,34.67,0.35,34.67,0.35,34.67"/>
		<path class="st2" d="M1027.88,669.96c0.35,34.67,0.35,34.67,0.35,34.67"/>
	</g>
	<g>
		<path class="st2" d="M991.29,726.56l-2.37-57.31c1-0.02,2.56-0.07,4.48-0.19c2.12-0.13,2.31-0.2,3.09-0.13
			c1.92,0.17,2.31,0.72,4.68,1.08c1.21,0.18,1.88,0.29,2.79,0.19c2.05-0.22,2.71-1.18,4.56-1.76c0.98-0.31,2.49-0.59,4.61-0.19
			c0.79,19.1,1.58,38.21,2.37,57.31L991.29,726.56z"/>
		<path class="st2" d="M993.4,669.06c1.07,30.9,1.07,30.9,1.07,30.9l0,0"/>
		<path class="st2" d="M1003.79,690.38c0.35,34.67,0.35,34.67,0.35,34.67"/>
		<path class="st2" d="M1008.64,669.96c0.35,34.67,0.35,34.67,0.35,34.67"/>
	</g>
	<g>
		<path class="st2" d="M969.19,729.22l-2.37-57.31c1-0.02,2.56-0.07,4.48-0.19c2.12-0.13,2.31-0.2,3.09-0.13
			c1.92,0.17,2.31,0.72,4.68,1.08c1.21,0.18,1.88,0.29,2.79,0.19c2.05-0.22,2.71-1.18,4.56-1.76c0.98-0.31,2.49-0.59,4.61-0.19
			c0.79,19.1,1.58,38.21,2.37,57.31L969.19,729.22z"/>
		<path class="st2" d="M971.3,671.72c1.07,30.9,1.07,30.9,1.07,30.9l0,0"/>
		<path class="st2" d="M981.69,693.04c0.35,34.67,0.35,34.67,0.35,34.67"/>
		<path class="st2" d="M986.53,672.62c0.35,34.67,0.35,34.67,0.35,34.67"/>
	</g>
	<g>
		<path class="st2" d="M951.46,729.22l-2.37-57.31c1-0.02,2.56-0.07,4.48-0.19c2.12-0.13,2.31-0.2,3.09-0.13
			c1.92,0.17,2.31,0.72,4.68,1.08c1.21,0.18,1.88,0.29,2.79,0.19c2.05-0.22,2.71-1.18,4.56-1.76c0.98-0.31,2.49-0.59,4.61-0.19
			c0.79,19.1,1.58,38.21,2.37,57.31L951.46,729.22z"/>
		<path class="st2" d="M953.57,671.72c1.07,30.9,1.07,30.9,1.07,30.9l0,0"/>
		<path class="st2" d="M963.96,693.04c0.35,34.67,0.35,34.67,0.35,34.67"/>
		<path class="st2" d="M968.81,672.62c0.35,34.67,0.35,34.67,0.35,34.67"/>
	</g>
	<g>
		<path class="st2" d="M933.73,729.22l-2.37-57.31c1-0.02,2.56-0.07,4.48-0.19c2.12-0.13,2.31-0.2,3.09-0.13
			c1.92,0.17,2.31,0.72,4.68,1.08c1.21,0.18,1.88,0.29,2.79,0.19c2.05-0.22,2.71-1.18,4.56-1.76c0.98-0.31,2.49-0.59,4.61-0.19
			c0.79,19.1,1.58,38.21,2.37,57.31L933.73,729.22z"/>
		<path class="st2" d="M935.84,671.72c1.07,30.9,1.07,30.9,1.07,30.9l0,0"/>
		<path class="st2" d="M946.23,693.04c0.35,34.67,0.35,34.67,0.35,34.67"/>
		<path class="st2" d="M951.08,672.62c0.35,34.67,0.35,34.67,0.35,34.67"/>
	</g>
	<g>
		<path class="st2" d="M920.44,729.22l-2.37-57.31c1-0.02,2.56-0.07,4.48-0.19c2.12-0.13,2.31-0.2,3.09-0.13
			c1.92,0.17,2.31,0.72,4.68,1.08c1.21,0.18,1.88,0.29,2.79,0.19c2.05-0.22,2.71-1.18,4.56-1.76c0.98-0.31,2.49-0.59,4.61-0.19
			c0.79,19.1,1.58,38.21,2.37,57.31L920.44,729.22z"/>
		<path class="st2" d="M922.55,671.72c1.07,30.9,1.07,30.9,1.07,30.9l0,0"/>
		<path class="st2" d="M932.94,693.04c0.35,34.67,0.35,34.67,0.35,34.67"/>
		<path class="st2" d="M937.79,672.62c0.35,34.67,0.35,34.67,0.35,34.67"/>
	</g>
	<g>
		<path class="st2" d="M1182.54,764.07l-2.37-57.31c1-0.02,2.56-0.07,4.48-0.19c2.12-0.13,2.31-0.2,3.09-0.13
			c1.92,0.17,2.31,0.72,4.68,1.08c1.21,0.18,1.88,0.29,2.79,0.19c2.05-0.22,2.71-1.18,4.56-1.76c0.98-0.31,2.49-0.59,4.61-0.19
			c0.79,19.1,1.58,38.21,2.37,57.31L1182.54,764.07z"/>
		<path class="st2" d="M1184.65,706.58c1.07,30.9,1.07,30.9,1.07,30.9l0,0"/>
		<path class="st2" d="M1195.04,727.89c0.35,34.67,0.35,34.67,0.35,34.67"/>
		<path class="st2" d="M1199.89,707.47c0.35,34.67,0.35,34.67,0.35,34.67"/>
	</g>
	<g>
		<path class="st2" d="M1160.43,764.07l-2.37-57.31c1-0.02,2.56-0.07,4.48-0.19c2.12-0.13,2.31-0.2,3.09-0.13
			c1.92,0.17,2.31,0.72,4.68,1.08c1.21,0.18,1.88,0.29,2.79,0.19c2.05-0.22,2.71-1.18,4.56-1.76c0.98-0.31,2.49-0.59,4.61-0.19
			c0.79,19.1,1.58,38.21,2.37,57.31L1160.43,764.07z"/>
		<path class="st2" d="M1162.55,706.58c1.07,30.9,1.07,30.9,1.07,30.9l0,0"/>
		<path class="st2" d="M1172.94,727.89c0.35,34.67,0.35,34.67,0.35,34.67"/>
		<path class="st2" d="M1177.78,707.47c0.35,34.67,0.35,34.67,0.35,34.67"/>
	</g>
	<g>
		<path class="st2" d="M1143.51,764.07l-2.37-57.31c1-0.02,2.56-0.07,4.48-0.19c2.12-0.13,2.31-0.2,3.09-0.13
			c1.92,0.17,2.31,0.72,4.68,1.08c1.21,0.18,1.88,0.29,2.79,0.19c2.05-0.22,2.71-1.18,4.56-1.76c0.98-0.31,2.49-0.59,4.61-0.19
			c0.79,19.1,1.58,38.21,2.37,57.31L1143.51,764.07z"/>
		<path class="st2" d="M1145.62,706.58c1.07,30.9,1.07,30.9,1.07,30.9l0,0"/>
		<path class="st2" d="M1156.02,727.89c0.35,34.67,0.35,34.67,0.35,34.67"/>
		<path class="st2" d="M1160.86,707.47c0.35,34.67,0.35,34.67,0.35,34.67"/>
	</g>
	<g>
		<path class="st2" d="M1130.22,764.07l-2.37-57.31c1-0.02,2.56-0.07,4.48-0.19c2.12-0.13,2.31-0.2,3.09-0.13
			c1.92,0.17,2.31,0.72,4.68,1.08c1.21,0.18,1.88,0.29,2.79,0.19c2.05-0.22,2.71-1.18,4.56-1.76c0.98-0.31,2.49-0.59,4.61-0.19
			c0.79,19.1,1.58,38.21,2.37,57.31L1130.22,764.07z"/>
		<path class="st2" d="M1132.33,706.58c1.07,30.9,1.07,30.9,1.07,30.9l0,0"/>
		<path class="st2" d="M1142.73,727.89c0.35,34.67,0.35,34.67,0.35,34.67"/>
		<path class="st2" d="M1147.57,707.47c0.35,34.67,0.35,34.67,0.35,34.67"/>
	</g>
	<g>
		<path class="st2" d="M1110.98,764.07l-2.37-57.31c1-0.02,2.56-0.07,4.48-0.19c2.12-0.13,2.31-0.2,3.09-0.13
			c1.92,0.17,2.31,0.72,4.68,1.08c1.21,0.18,1.88,0.29,2.79,0.19c2.05-0.22,2.71-1.18,4.56-1.76c0.98-0.31,2.49-0.59,4.61-0.19
			c0.79,19.1,1.58,38.21,2.37,57.31L1110.98,764.07z"/>
		<path class="st2" d="M1113.09,706.58c1.07,30.9,1.07,30.9,1.07,30.9l0,0"/>
		<path class="st2" d="M1123.48,727.89c0.35,34.67,0.35,34.67,0.35,34.67"/>
		<path class="st2" d="M1128.32,707.47c0.35,34.67,0.35,34.67,0.35,34.67"/>
	</g>
	<g>
		<path class="st2" d="M1088.87,766.73l-2.37-57.31c1-0.02,2.56-0.07,4.48-0.19c2.12-0.13,2.31-0.2,3.09-0.13
			c1.92,0.17,2.31,0.72,4.68,1.08c1.21,0.18,1.88,0.29,2.79,0.19c2.05-0.22,2.71-1.18,4.56-1.76c0.98-0.31,2.49-0.59,4.61-0.19
			c0.79,19.1,1.58,38.21,2.37,57.31L1088.87,766.73z"/>
		<path class="st2" d="M1090.98,709.24c1.07,30.9,1.07,30.9,1.07,30.9l0,0"/>
		<path class="st2" d="M1101.38,730.55c0.35,34.67,0.35,34.67,0.35,34.67"/>
		<path class="st2" d="M1106.22,710.13c0.35,34.67,0.35,34.67,0.35,34.67"/>
	</g>
	<g>
		<path class="st2" d="M1071.14,766.73l-2.37-57.31c1-0.02,2.56-0.07,4.48-0.19c2.12-0.13,2.31-0.2,3.09-0.13
			c1.92,0.17,2.31,0.72,4.68,1.08c1.21,0.18,1.88,0.29,2.79,0.19c2.05-0.22,2.71-1.18,4.56-1.76c0.98-0.31,2.49-0.59,4.61-0.19
			c0.79,19.1,1.58,38.21,2.37,57.31L1071.14,766.73z"/>
		<path class="st2" d="M1073.26,709.24c1.07,30.9,1.07,30.9,1.07,30.9l0,0"/>
		<path class="st2" d="M1083.65,730.55c0.35,34.67,0.35,34.67,0.35,34.67"/>
		<path class="st2" d="M1088.49,710.13c0.35,34.67,0.35,34.67,0.35,34.67"/>
	</g>
	<g>
		<path class="st2" d="M1053.42,766.73l-2.37-57.31c1-0.02,2.56-0.07,4.48-0.19c2.12-0.13,2.31-0.2,3.09-0.13
			c1.92,0.17,2.31,0.72,4.68,1.08c1.21,0.18,1.88,0.29,2.79,0.19c2.05-0.22,2.71-1.18,4.56-1.76c0.98-0.31,2.49-0.59,4.61-0.19
			c0.79,19.1,1.58,38.21,2.37,57.31L1053.42,766.73z"/>
		<path class="st2" d="M1055.53,709.24c1.07,30.9,1.07,30.9,1.07,30.9l0,0"/>
		<path class="st2" d="M1065.92,730.55c0.35,34.67,0.35,34.67,0.35,34.67"/>
		<path class="st2" d="M1070.77,710.13c0.35,34.67,0.35,34.67,0.35,34.67"/>
	</g>
	<g>
		<path class="st2" d="M1040.12,766.73l-2.37-57.31c1-0.02,2.56-0.07,4.48-0.19c2.12-0.13,2.31-0.2,3.09-0.13
			c1.92,0.17,2.31,0.72,4.68,1.08c1.21,0.18,1.88,0.29,2.79,0.19c2.05-0.22,2.71-1.18,4.56-1.76c0.98-0.31,2.49-0.59,4.61-0.19
			c0.79,19.1,1.58,38.21,2.37,57.31L1040.12,766.73z"/>
		<path class="st2" d="M1042.24,709.24c1.07,30.9,1.07,30.9,1.07,30.9l0,0"/>
		<path class="st2" d="M1052.63,730.55c0.35,34.67,0.35,34.67,0.35,34.67"/>
		<path class="st2" d="M1057.47,710.13c0.35,34.67,0.35,34.67,0.35,34.67"/>
	</g>
	<g>
		<path class="st2" d="M998.71,726.56l-2.37-57.31c1-0.02,2.56-0.07,4.48-0.19c2.12-0.13,2.31-0.2,3.09-0.13
			c1.92,0.17,2.31,0.72,4.68,1.08c1.21,0.18,1.88,0.29,2.79,0.19c2.05-0.22,2.71-1.18,4.56-1.76c0.98-0.31,2.49-0.59,4.61-0.19
			c0.79,19.1,1.58,38.21,2.37,57.31L998.71,726.56z"/>
		<path class="st2" d="M1000.82,669.06c1.07,30.9,1.07,30.9,1.07,30.9l0,0"/>
		<path class="st2" d="M1011.21,690.38c0.35,34.67,0.35,34.67,0.35,34.67"/>
		<path class="st2" d="M1016.06,669.96c0.35,34.67,0.35,34.67,0.35,34.67"/>
	</g>
	<g>
		<path class="st2" d="M976.6,726.56l-2.37-57.31c1-0.02,2.56-0.07,4.48-0.19c2.12-0.13,2.31-0.2,3.09-0.13
			c1.92,0.17,2.31,0.72,4.68,1.08c1.21,0.18,1.88,0.29,2.79,0.19c2.05-0.22,2.71-1.18,4.56-1.76c0.98-0.31,2.49-0.59,4.61-0.19
			c0.79,19.1,1.58,38.21,2.37,57.31L976.6,726.56z"/>
		<path class="st2" d="M978.72,669.06c1.07,30.9,1.07,30.9,1.07,30.9l0,0"/>
		<path class="st2" d="M989.11,690.38c0.35,34.67,0.35,34.67,0.35,34.67"/>
		<path class="st2" d="M993.95,669.96c0.35,34.67,0.35,34.67,0.35,34.67"/>
	</g>
	<g>
		<path class="st2" d="M959.68,726.56l-2.37-57.31c1-0.02,2.56-0.07,4.48-0.19c2.12-0.13,2.31-0.2,3.09-0.13
			c1.92,0.17,2.31,0.72,4.68,1.08c1.21,0.18,1.88,0.29,2.79,0.19c2.05-0.22,2.71-1.18,4.56-1.76c0.98-0.31,2.49-0.59,4.61-0.19
			c0.79,19.1,1.58,38.21,2.37,57.31L959.68,726.56z"/>
		<path class="st2" d="M961.79,669.06c1.07,30.9,1.07,30.9,1.07,30.9l0,0"/>
		<path class="st2" d="M972.19,690.38c0.35,34.67,0.35,34.67,0.35,34.67"/>
		<path class="st2" d="M977.03,669.96c0.35,34.67,0.35,34.67,0.35,34.67"/>
	</g>
	<g>
		<path class="st2" d="M946.39,726.56l-2.37-57.31c1-0.02,2.56-0.07,4.48-0.19c2.12-0.13,2.31-0.2,3.09-0.13
			c1.92,0.17,2.31,0.72,4.68,1.08c1.21,0.18,1.88,0.29,2.79,0.19c2.05-0.22,2.71-1.18,4.56-1.76c0.98-0.31,2.49-0.59,4.61-0.19
			c0.79,19.1,1.58,38.21,2.37,57.31L946.39,726.56z"/>
		<path class="st2" d="M948.5,669.06c1.07,30.9,1.07,30.9,1.07,30.9l0,0"/>
		<path class="st2" d="M958.9,690.38c0.35,34.67,0.35,34.67,0.35,34.67"/>
		<path class="st2" d="M963.74,669.96c0.35,34.67,0.35,34.67,0.35,34.67"/>
	</g>
	<g>
		<path class="st2" d="M927.15,726.56l-2.37-57.31c1-0.02,2.56-0.07,4.48-0.19c2.12-0.13,2.31-0.2,3.09-0.13
			c1.92,0.17,2.31,0.72,4.68,1.08c1.21,0.18,1.88,0.29,2.79,0.19c2.05-0.22,2.71-1.18,4.56-1.76c0.98-0.31,2.49-0.59,4.61-0.19
			c0.79,19.1,1.58,38.21,2.37,57.31L927.15,726.56z"/>
		<path class="st2" d="M929.26,669.06c1.07,30.9,1.07,30.9,1.07,30.9l0,0"/>
		<path class="st2" d="M939.65,690.38c0.35,34.67,0.35,34.67,0.35,34.67"/>
		<path class="st2" d="M944.49,669.96c0.35,34.67,0.35,34.67,0.35,34.67"/>
	</g>
	<g>
		<path class="st2" d="M905.04,729.22l-2.37-57.31c1-0.02,2.56-0.07,4.48-0.19c2.12-0.13,2.31-0.2,3.09-0.13
			c1.92,0.17,2.31,0.72,4.68,1.08c1.21,0.18,1.88,0.29,2.79,0.19c2.05-0.22,2.71-1.18,4.56-1.76c0.98-0.31,2.49-0.59,4.61-0.19
			c0.79,19.1,1.58,38.21,2.37,57.31L905.04,729.22z"/>
		<path class="st2" d="M907.15,671.72c1.07,30.9,1.07,30.9,1.07,30.9l0,0"/>
		<path class="st2" d="M917.55,693.04c0.35,34.67,0.35,34.67,0.35,34.67"/>
		<path class="st2" d="M922.39,672.62c0.35,34.67,0.35,34.67,0.35,34.67"/>
	</g>
	<g>
		<path class="st2" d="M887.31,729.22l-2.37-57.31c1-0.02,2.56-0.07,4.48-0.19c2.12-0.13,2.31-0.2,3.09-0.13
			c1.92,0.17,2.31,0.72,4.68,1.08c1.21,0.18,1.88,0.29,2.79,0.19c2.05-0.22,2.71-1.18,4.56-1.76c0.98-0.31,2.49-0.59,4.61-0.19
			c0.79,19.1,1.58,38.21,2.37,57.31L887.31,729.22z"/>
		<path class="st2" d="M889.43,671.72c1.07,30.9,1.07,30.9,1.07,30.9l0,0"/>
		<path class="st2" d="M899.82,693.04c0.35,34.67,0.35,34.67,0.35,34.67"/>
		<path class="st2" d="M904.66,672.62c0.35,34.67,0.35,34.67,0.35,34.67"/>
	</g>
	<g>
		<path class="st2" d="M869.59,729.22l-2.37-57.31c1-0.02,2.56-0.07,4.48-0.19c2.12-0.13,2.31-0.2,3.09-0.13
			c1.92,0.17,2.31,0.72,4.68,1.08c1.21,0.18,1.88,0.29,2.79,0.19c2.05-0.22,2.71-1.18,4.56-1.76c0.98-0.31,2.49-0.59,4.61-0.19
			c0.79,19.1,1.58,38.21,2.37,57.31L869.59,729.22z"/>
		<path class="st2" d="M871.7,671.72c1.07,30.9,1.07,30.9,1.07,30.9l0,0"/>
		<path class="st2" d="M882.09,693.04c0.35,34.67,0.35,34.67,0.35,34.67"/>
		<path class="st2" d="M886.94,672.62c0.35,34.67,0.35,34.67,0.35,34.67"/>
	</g>
	<g>
		<path class="st2" d="M856.29,729.22l-2.37-57.31c1-0.02,2.56-0.07,4.48-0.19c2.12-0.13,2.31-0.2,3.09-0.13
			c1.92,0.17,2.31,0.72,4.68,1.08c1.21,0.18,1.88,0.29,2.79,0.19c2.05-0.22,2.71-1.18,4.56-1.76c0.98-0.31,2.49-0.59,4.61-0.19
			c0.79,19.1,1.58,38.21,2.37,57.31L856.29,729.22z"/>
		<path class="st2" d="M858.41,671.72c1.07,30.9,1.07,30.9,1.07,30.9l0,0"/>
		<path class="st2" d="M868.8,693.04c0.35,34.67,0.35,34.67,0.35,34.67"/>
		<path class="st2" d="M873.64,672.62c0.35,34.67,0.35,34.67,0.35,34.67"/>
	</g>
	<g>
		<path class="st2" d="M997.19,762.74l-2.37-57.31c1-0.02,2.56-0.07,4.48-0.19c2.12-0.13,2.31-0.2,3.09-0.13
			c1.92,0.17,2.31,0.72,4.68,1.08c1.21,0.18,1.88,0.29,2.79,0.19c2.05-0.22,2.71-1.18,4.56-1.76c0.98-0.31,2.49-0.59,4.61-0.19
			c0.79,19.1,1.58,38.21,2.37,57.31L997.19,762.74z"/>
		<path class="st2" d="M999.3,705.25c1.07,30.9,1.07,30.9,1.07,30.9l0,0"/>
		<path class="st2" d="M1009.7,726.56c0.35,34.67,0.35,34.67,0.35,34.67"/>
		<path class="st2" d="M1014.54,706.14c0.35,34.67,0.35,34.67,0.35,34.67"/>
	</g>
	<g>
		<path class="st2" d="M975.09,762.74l-2.37-57.31c1-0.02,2.56-0.07,4.48-0.19c2.12-0.13,2.31-0.2,3.09-0.13
			c1.92,0.17,2.31,0.72,4.68,1.08c1.21,0.18,1.88,0.29,2.79,0.19c2.05-0.22,2.71-1.18,4.56-1.76c0.98-0.31,2.49-0.59,4.61-0.19
			c0.79,19.1,1.58,38.21,2.37,57.31L975.09,762.74z"/>
		<path class="st2" d="M977.2,705.25c1.07,30.9,1.07,30.9,1.07,30.9l0,0"/>
		<path class="st2" d="M987.59,726.56c0.35,34.67,0.35,34.67,0.35,34.67"/>
		<path class="st2" d="M992.44,706.14c0.35,34.67,0.35,34.67,0.35,34.67"/>
	</g>
	<g>
		<path class="st2" d="M958.17,762.74l-2.37-57.31c1-0.02,2.56-0.07,4.48-0.19c2.12-0.13,2.31-0.2,3.09-0.13
			c1.92,0.17,2.31,0.72,4.68,1.08c1.21,0.18,1.88,0.29,2.79,0.19c2.05-0.22,2.71-1.18,4.56-1.76c0.98-0.31,2.49-0.59,4.61-0.19
			c0.79,19.1,1.58,38.21,2.37,57.31L958.17,762.74z"/>
		<path class="st2" d="M960.28,705.25c1.07,30.9,1.07,30.9,1.07,30.9l0,0"/>
		<path class="st2" d="M970.67,726.56c0.35,34.67,0.35,34.67,0.35,34.67"/>
		<path class="st2" d="M975.52,706.14c0.35,34.67,0.35,34.67,0.35,34.67"/>
	</g>
	<g>
		<path class="st2" d="M944.88,762.74l-2.37-57.31c1-0.02,2.56-0.07,4.48-0.19c2.12-0.13,2.31-0.2,3.09-0.13
			c1.92,0.17,2.31,0.72,4.68,1.08c1.21,0.18,1.88,0.29,2.79,0.19c2.05-0.22,2.71-1.18,4.56-1.76c0.98-0.31,2.49-0.59,4.61-0.19
			c0.79,19.1,1.58,38.21,2.37,57.31L944.88,762.74z"/>
		<path class="st2" d="M946.99,705.25c1.07,30.9,1.07,30.9,1.07,30.9l0,0"/>
		<path class="st2" d="M957.38,726.56c0.35,34.67,0.35,34.67,0.35,34.67"/>
		<path class="st2" d="M962.22,706.14c0.35,34.67,0.35,34.67,0.35,34.67"/>
	</g>
	<g>
		<path class="st2" d="M925.63,762.74l-2.37-57.31c1-0.02,2.56-0.07,4.48-0.19c2.12-0.13,2.31-0.2,3.09-0.13
			c1.92,0.17,2.31,0.72,4.68,1.08c1.21,0.18,1.88,0.29,2.79,0.19c2.05-0.22,2.71-1.18,4.56-1.76c0.98-0.31,2.49-0.59,4.61-0.19
			c0.79,19.1,1.58,38.21,2.37,57.31L925.63,762.74z"/>
		<path class="st2" d="M927.74,705.25c1.07,30.9,1.07,30.9,1.07,30.9l0,0"/>
		<path class="st2" d="M938.13,726.56c0.35,34.67,0.35,34.67,0.35,34.67"/>
		<path class="st2" d="M942.98,706.14c0.35,34.67,0.35,34.67,0.35,34.67"/>
	</g>
	<g>
		<path class="st2" d="M903.53,765.4l-2.37-57.31c1-0.02,2.56-0.07,4.48-0.19c2.12-0.13,2.31-0.2,3.09-0.13
			c1.92,0.17,2.31,0.72,4.68,1.08c1.21,0.18,1.88,0.29,2.79,0.19c2.05-0.22,2.71-1.18,4.56-1.76c0.98-0.31,2.49-0.59,4.61-0.19
			c0.79,19.1,1.58,38.21,2.37,57.31L903.53,765.4z"/>
		<path class="st2" d="M905.64,707.91c1.07,30.9,1.07,30.9,1.07,30.9l0,0"/>
		<path class="st2" d="M916.03,729.22c0.35,34.67,0.35,34.67,0.35,34.67"/>
		<path class="st2" d="M920.88,708.8c0.35,34.67,0.35,34.67,0.35,34.67"/>
	</g>
	<g>
		<path class="st2" d="M885.8,765.4l-2.37-57.31c1-0.02,2.56-0.07,4.48-0.19c2.12-0.13,2.31-0.2,3.09-0.13
			c1.92,0.17,2.31,0.72,4.68,1.08c1.21,0.18,1.88,0.29,2.79,0.19c2.05-0.22,2.71-1.18,4.56-1.76c0.98-0.31,2.49-0.59,4.61-0.19
			c0.79,19.1,1.58,38.21,2.37,57.31L885.8,765.4z"/>
		<path class="st2" d="M887.91,707.91c1.07,30.9,1.07,30.9,1.07,30.9l0,0"/>
		<path class="st2" d="M898.3,729.22c0.35,34.67,0.35,34.67,0.35,34.67"/>
		<path class="st2" d="M903.15,708.8c0.35,34.67,0.35,34.67,0.35,34.67"/>
	</g>
	<g>
		<path class="st2" d="M868.07,765.4l-2.37-57.31c1-0.02,2.56-0.07,4.48-0.19c2.12-0.13,2.31-0.2,3.09-0.13
			c1.92,0.17,2.31,0.72,4.68,1.08c1.21,0.18,1.88,0.29,2.79,0.19c2.05-0.22,2.71-1.18,4.56-1.76c0.98-0.31,2.49-0.59,4.61-0.19
			c0.79,19.1,1.58,38.21,2.37,57.31L868.07,765.4z"/>
		<path class="st2" d="M870.18,707.91c1.07,30.9,1.07,30.9,1.07,30.9l0,0"/>
		<path class="st2" d="M880.58,729.22c0.35,34.67,0.35,34.67,0.35,34.67"/>
		<path class="st2" d="M885.42,708.8c0.35,34.67,0.35,34.67,0.35,34.67"/>
	</g>
	<g>
		<path class="st2" d="M854.78,765.4l-2.37-57.31c1-0.02,2.56-0.07,4.48-0.19c2.12-0.13,2.31-0.2,3.09-0.13
			c1.92,0.17,2.31,0.72,4.68,1.08c1.21,0.18,1.88,0.29,2.79,0.19c2.05-0.22,2.71-1.18,4.56-1.76c0.98-0.31,2.49-0.59,4.61-0.19
			c0.79,19.1,1.58,38.21,2.37,57.31L854.78,765.4z"/>
		<path class="st2" d="M856.89,707.91c1.07,30.9,1.07,30.9,1.07,30.9l0,0"/>
		<path class="st2" d="M867.28,729.22c0.35,34.67,0.35,34.67,0.35,34.67"/>
		<path class="st2" d="M872.13,708.8c0.35,34.67,0.35,34.67,0.35,34.67"/>
	</g>
	<g>
		<path class="st2" d="M1063.49,806.02l-2.37-57.31c1-0.02,2.56-0.07,4.48-0.19c2.12-0.13,2.31-0.2,3.09-0.13
			c1.92,0.17,2.31,0.72,4.68,1.08c1.21,0.18,1.88,0.29,2.79,0.19c2.05-0.22,2.71-1.18,4.56-1.76c0.98-0.31,2.49-0.59,4.61-0.19
			c0.79,19.1,1.58,38.21,2.37,57.31L1063.49,806.02z"/>
		<path class="st2" d="M1065.6,748.52c1.07,30.9,1.07,30.9,1.07,30.9l0,0"/>
		<path class="st2" d="M1075.99,769.84c0.35,34.67,0.35,34.67,0.35,34.67"/>
		<path class="st2" d="M1080.84,749.41c0.35,34.67,0.35,34.67,0.35,34.67"/>
	</g>
	<g>
		<path class="st2" d="M1041.38,806.02l-2.37-57.31c1-0.02,2.56-0.07,4.48-0.19c2.12-0.13,2.31-0.2,3.09-0.13
			c1.92,0.17,2.31,0.72,4.68,1.08c1.21,0.18,1.88,0.29,2.79,0.19c2.05-0.22,2.71-1.18,4.56-1.76c0.98-0.31,2.49-0.59,4.61-0.19
			c0.79,19.1,1.58,38.21,2.37,57.31L1041.38,806.02z"/>
		<path class="st2" d="M1043.5,748.52c1.07,30.9,1.07,30.9,1.07,30.9l0,0"/>
		<path class="st2" d="M1053.89,769.84c0.35,34.67,0.35,34.67,0.35,34.67"/>
		<path class="st2" d="M1058.73,749.41c0.35,34.67,0.35,34.67,0.35,34.67"/>
	</g>
	<g>
		<path class="st2" d="M1024.46,806.02l-2.37-57.31c1-0.02,2.56-0.07,4.48-0.19c2.12-0.13,2.31-0.2,3.09-0.13
			c1.92,0.17,2.31,0.72,4.68,1.08c1.21,0.18,1.88,0.29,2.79,0.19c2.05-0.22,2.71-1.18,4.56-1.76c0.98-0.31,2.49-0.59,4.61-0.19
			c0.79,19.1,1.58,38.21,2.37,57.31L1024.46,806.02z"/>
		<path class="st2" d="M1026.58,748.52c1.07,30.9,1.07,30.9,1.07,30.9l0,0"/>
		<path class="st2" d="M1036.97,769.84c0.35,34.67,0.35,34.67,0.35,34.67"/>
		<path class="st2" d="M1041.81,749.41c0.35,34.67,0.35,34.67,0.35,34.67"/>
	</g>
	<g>
		<path class="st2" d="M1011.17,806.02l-2.37-57.31c1-0.02,2.56-0.07,4.48-0.19c2.12-0.13,2.31-0.2,3.09-0.13
			c1.92,0.17,2.31,0.72,4.68,1.08c1.21,0.18,1.88,0.29,2.79,0.19c2.05-0.22,2.71-1.18,4.56-1.76c0.98-0.31,2.49-0.59,4.61-0.19
			c0.79,19.1,1.58,38.21,2.37,57.31L1011.17,806.02z"/>
		<path class="st2" d="M1013.28,748.52c1.07,30.9,1.07,30.9,1.07,30.9l0,0"/>
		<path class="st2" d="M1023.68,769.84c0.35,34.67,0.35,34.67,0.35,34.67"/>
		<path class="st2" d="M1028.52,749.41c0.35,34.67,0.35,34.67,0.35,34.67"/>
	</g>
	<g>
		<path class="st2" d="M991.93,806.02l-2.37-57.31c1-0.02,2.56-0.07,4.48-0.19c2.12-0.13,2.31-0.2,3.09-0.13
			c1.92,0.17,2.31,0.72,4.68,1.08c1.21,0.18,1.88,0.29,2.79,0.19c2.05-0.22,2.71-1.18,4.56-1.76c0.98-0.31,2.49-0.59,4.61-0.19
			c0.79,19.1,1.58,38.21,2.37,57.31L991.93,806.02z"/>
		<path class="st2" d="M994.04,748.52c1.07,30.9,1.07,30.9,1.07,30.9l0,0"/>
		<path class="st2" d="M1004.43,769.84c0.35,34.67,0.35,34.67,0.35,34.67"/>
		<path class="st2" d="M1009.28,749.41c0.35,34.67,0.35,34.67,0.35,34.67"/>
	</g>
	<g>
		<path class="st2" d="M969.82,808.68l-2.37-57.31c1-0.02,2.56-0.07,4.48-0.19c2.12-0.13,2.31-0.2,3.09-0.13
			c1.92,0.17,2.31,0.72,4.68,1.08c1.21,0.18,1.88,0.29,2.79,0.19c2.05-0.22,2.71-1.18,4.56-1.76c0.98-0.31,2.49-0.59,4.61-0.19
			c0.79,19.1,1.58,38.21,2.37,57.31L969.82,808.68z"/>
		<path class="st2" d="M971.94,751.18c1.07,30.9,1.07,30.9,1.07,30.9l0,0"/>
		<path class="st2" d="M982.33,772.5c0.35,34.67,0.35,34.67,0.35,34.67"/>
		<path class="st2" d="M987.17,752.07c0.35,34.67,0.35,34.67,0.35,34.67"/>
	</g>
	<g>
		<path class="st2" d="M952.09,808.68l-2.37-57.31c1-0.02,2.56-0.07,4.48-0.19c2.12-0.13,2.31-0.2,3.09-0.13
			c1.92,0.17,2.31,0.72,4.68,1.08c1.21,0.18,1.88,0.29,2.79,0.19c2.05-0.22,2.71-1.18,4.56-1.76c0.98-0.31,2.49-0.59,4.61-0.19
			c0.79,19.1,1.58,38.21,2.37,57.31L952.09,808.68z"/>
		<path class="st2" d="M954.21,751.18c1.07,30.9,1.07,30.9,1.07,30.9l0,0"/>
		<path class="st2" d="M964.6,772.5c0.35,34.67,0.35,34.67,0.35,34.67"/>
		<path class="st2" d="M969.44,752.07c0.35,34.67,0.35,34.67,0.35,34.67"/>
	</g>
	<g>
		<path class="st2" d="M934.37,808.68L932,751.37c1-0.02,2.56-0.07,4.48-0.19c2.12-0.13,2.31-0.2,3.09-0.13
			c1.92,0.17,2.31,0.72,4.68,1.08c1.21,0.18,1.88,0.29,2.79,0.19c2.05-0.22,2.71-1.18,4.56-1.76c0.98-0.31,2.49-0.59,4.61-0.19
			c0.79,19.1,1.58,38.21,2.37,57.31L934.37,808.68z"/>
		<path class="st2" d="M936.48,751.18c1.07,30.9,1.07,30.9,1.07,30.9l0,0"/>
		<path class="st2" d="M946.87,772.5c0.35,34.67,0.35,34.67,0.35,34.67"/>
		<path class="st2" d="M951.72,752.07c0.35,34.67,0.35,34.67,0.35,34.67"/>
	</g>
	<g>
		<path class="st2" d="M921.08,808.68l-2.37-57.31c1-0.02,2.56-0.07,4.48-0.19c2.12-0.13,2.31-0.2,3.09-0.13
			c1.92,0.17,2.31,0.72,4.68,1.08c1.21,0.18,1.88,0.29,2.79,0.19c2.05-0.22,2.71-1.18,4.56-1.76c0.98-0.31,2.49-0.59,4.61-0.19
			c0.79,19.1,1.58,38.21,2.37,57.31L921.08,808.68z"/>
		<path class="st2" d="M923.19,751.18c1.07,30.9,1.07,30.9,1.07,30.9l0,0"/>
		<path class="st2" d="M933.58,772.5c0.35,34.67,0.35,34.67,0.35,34.67"/>
		<path class="st2" d="M938.42,752.07c0.35,34.67,0.35,34.67,0.35,34.67"/>
	</g>
	<g>
		<path class="st2" d="M1042.67,764.07l-2.37-57.31c1-0.02,2.56-0.07,4.48-0.19c2.12-0.13,2.31-0.2,3.09-0.13
			c1.92,0.17,2.31,0.72,4.68,1.08c1.21,0.18,1.88,0.29,2.79,0.19c2.05-0.22,2.71-1.18,4.56-1.76c0.98-0.31,2.49-0.59,4.61-0.19
			c0.79,19.1,1.58,38.21,2.37,57.31L1042.67,764.07z"/>
		<path class="st2" d="M1044.78,706.58c1.07,30.9,1.07,30.9,1.07,30.9l0,0"/>
		<path class="st2" d="M1055.17,727.89c0.35,34.67,0.35,34.67,0.35,34.67"/>
		<path class="st2" d="M1060.01,707.47c0.35,34.67,0.35,34.67,0.35,34.67"/>
	</g>
	<g>
		<path class="st2" d="M1020.56,764.07l-2.37-57.31c1-0.02,2.56-0.07,4.48-0.19c2.12-0.13,2.31-0.2,3.09-0.13
			c1.92,0.17,2.31,0.72,4.68,1.08c1.21,0.18,1.88,0.29,2.79,0.19c2.05-0.22,2.71-1.18,4.56-1.76c0.98-0.31,2.49-0.59,4.61-0.19
			c0.79,19.1,1.58,38.21,2.37,57.31L1020.56,764.07z"/>
		<path class="st2" d="M1022.67,706.58c1.07,30.9,1.07,30.9,1.07,30.9l0,0"/>
		<path class="st2" d="M1033.07,727.89c0.35,34.67,0.35,34.67,0.35,34.67"/>
		<path class="st2" d="M1037.91,707.47c0.35,34.67,0.35,34.67,0.35,34.67"/>
	</g>
	<g>
		<path class="st2" d="M1003.64,764.07l-2.37-57.31c1-0.02,2.56-0.07,4.48-0.19c2.12-0.13,2.31-0.2,3.09-0.13
			c1.92,0.17,2.31,0.72,4.68,1.08c1.21,0.18,1.88,0.29,2.79,0.19c2.05-0.22,2.71-1.18,4.56-1.76c0.98-0.31,2.49-0.59,4.61-0.19
			c0.79,19.1,1.58,38.21,2.37,57.31L1003.64,764.07z"/>
		<path class="st2" d="M1005.75,706.58c1.07,30.9,1.07,30.9,1.07,30.9l0,0"/>
		<path class="st2" d="M1016.14,727.89c0.35,34.67,0.35,34.67,0.35,34.67"/>
		<path class="st2" d="M1020.99,707.47c0.35,34.67,0.35,34.67,0.35,34.67"/>
	</g>
	<g>
		<path class="st2" d="M990.35,764.07l-2.37-57.31c1-0.02,2.56-0.07,4.48-0.19c2.12-0.13,2.31-0.2,3.09-0.13
			c1.92,0.17,2.31,0.72,4.68,1.08c1.21,0.18,1.88,0.29,2.79,0.19c2.05-0.22,2.71-1.18,4.56-1.76c0.98-0.31,2.49-0.59,4.61-0.19
			c0.79,19.1,1.58,38.21,2.37,57.31L990.35,764.07z"/>
		<path class="st2" d="M992.46,706.58c1.07,30.9,1.07,30.9,1.07,30.9l0,0"/>
		<path class="st2" d="M1002.85,727.89c0.35,34.67,0.35,34.67,0.35,34.67"/>
		<path class="st2" d="M1007.7,707.47c0.35,34.67,0.35,34.67,0.35,34.67"/>
	</g>
	<g>
		<path class="st2" d="M971.1,764.07l-2.37-57.31c1-0.02,2.56-0.07,4.48-0.19c2.12-0.13,2.31-0.2,3.09-0.13
			c1.92,0.17,2.31,0.72,4.68,1.08c1.21,0.18,1.88,0.29,2.79,0.19c2.05-0.22,2.71-1.18,4.56-1.76c0.98-0.31,2.49-0.59,4.61-0.19
			c0.79,19.1,1.58,38.21,2.37,57.31L971.1,764.07z"/>
		<path class="st2" d="M973.22,706.58c1.07,30.9,1.07,30.9,1.07,30.9l0,0"/>
		<path class="st2" d="M983.61,727.89c0.35,34.67,0.35,34.67,0.35,34.67"/>
		<path class="st2" d="M988.45,707.47c0.35,34.67,0.35,34.67,0.35,34.67"/>
	</g>
	<g>
		<path class="st2" d="M949,766.73l-2.37-57.31c1-0.02,2.56-0.07,4.48-0.19c2.12-0.13,2.31-0.2,3.09-0.13
			c1.92,0.17,2.31,0.72,4.68,1.08c1.21,0.18,1.88,0.29,2.79,0.19c2.05-0.22,2.71-1.18,4.56-1.76c0.98-0.31,2.49-0.59,4.61-0.19
			c0.79,19.1,1.58,38.21,2.37,57.31L949,766.73z"/>
		<path class="st2" d="M951.11,709.24c1.07,30.9,1.07,30.9,1.07,30.9l0,0"/>
		<path class="st2" d="M961.5,730.55c0.35,34.67,0.35,34.67,0.35,34.67"/>
		<path class="st2" d="M966.35,710.13c0.35,34.67,0.35,34.67,0.35,34.67"/>
	</g>
	<g>
		<path class="st2" d="M931.27,766.73l-2.37-57.31c1-0.02,2.56-0.07,4.48-0.19c2.12-0.13,2.31-0.2,3.09-0.13
			c1.92,0.17,2.31,0.72,4.68,1.08c1.21,0.18,1.88,0.29,2.79,0.19c2.05-0.22,2.71-1.18,4.56-1.76c0.98-0.31,2.49-0.59,4.61-0.19
			c0.79,19.1,1.58,38.21,2.37,57.31L931.27,766.73z"/>
		<path class="st2" d="M933.38,709.24c1.07,30.9,1.07,30.9,1.07,30.9l0,0"/>
		<path class="st2" d="M943.78,730.55c0.35,34.67,0.35,34.67,0.35,34.67"/>
		<path class="st2" d="M948.62,710.13c0.35,34.67,0.35,34.67,0.35,34.67"/>
	</g>
	<g>
		<path class="st2" d="M913.54,766.73l-2.37-57.31c1-0.02,2.56-0.07,4.48-0.19c2.12-0.13,2.31-0.2,3.09-0.13
			c1.92,0.17,2.31,0.72,4.68,1.08c1.21,0.18,1.88,0.29,2.79,0.19c2.05-0.22,2.71-1.18,4.56-1.76c0.98-0.31,2.49-0.59,4.61-0.19
			c0.79,19.1,1.58,38.21,2.37,57.31L913.54,766.73z"/>
		<path class="st2" d="M915.66,709.24c1.07,30.9,1.07,30.9,1.07,30.9l0,0"/>
		<path class="st2" d="M926.05,730.55c0.35,34.67,0.35,34.67,0.35,34.67"/>
		<path class="st2" d="M930.89,710.13c0.35,34.67,0.35,34.67,0.35,34.67"/>
	</g>
	<g>
		<path class="st2" d="M900.25,766.73l-2.37-57.31c1-0.02,2.56-0.07,4.48-0.19c2.12-0.13,2.31-0.2,3.09-0.13
			c1.92,0.17,2.31,0.72,4.68,1.08c1.21,0.18,1.88,0.29,2.79,0.19c2.05-0.22,2.71-1.18,4.56-1.76c0.98-0.31,2.49-0.59,4.61-0.19
			c0.79,19.1,1.58,38.21,2.37,57.31L900.25,766.73z"/>
		<path class="st2" d="M902.36,709.24c1.07,30.9,1.07,30.9,1.07,30.9l0,0"/>
		<path class="st2" d="M912.76,730.55c0.35,34.67,0.35,34.67,0.35,34.67"/>
		<path class="st2" d="M917.6,710.13c0.35,34.67,0.35,34.67,0.35,34.67"/>
	</g>
</g>
<g class="st3">
	<g>
		<g>
			<path class="st4" d="M94.52,518.46c4.42,0-2.41-6.37-2.42-6.38c-2.8-2.67-5.71-5.22-8.72-7.65c-1.48-1.54-3.23-2.59-5.25-3.15
				c-4.42,0,2.41,6.37,2.42,6.38c2.8,2.67,5.71,5.22,8.72,7.65C90.75,516.85,92.5,517.9,94.52,518.46z"/>
			<path class="st4" d="M97.55,510.7c3.62,0-0.01-4.81-0.57-5.58c-1.8-2.35-3.73-4.59-5.77-6.73c-0.98-1.39-2.25-2.31-3.83-2.78
				c-3.62,0,0.01,4.81,0.57,5.58c1.8,2.35,3.73,4.59,5.77,6.73C94.7,509.3,95.98,510.23,97.55,510.7z"/>
			<path class="st4" d="M99.4,516.88c1.21,0.25,1.72-0.23,1.52-1.45c-0.87-2.24-2.22-4.19-4.05-5.82c-2.99-3.36-6.09-6.62-9.31-9.76
				c-1.55-1.9-3.43-3.34-5.63-4.32c-1.21-0.25-1.72,0.23-1.52,1.45c0.87,2.24,2.22,4.19,4.05,5.82c2.99,3.36,6.09,6.62,9.31,9.76
				C95.32,514.47,97.19,515.9,99.4,516.88z"/>
			<path class="st4" d="M106.33,525.05c3.72,0-0.53-5.02-0.95-5.52c-1.96-2.22-4.03-4.32-6.22-6.31c-1.07-1.31-2.41-2.15-4.01-2.51
				c-3.72,0,0.53,5.02,0.95,5.52c1.96,2.22,4.03,4.32,6.22,6.31C103.39,523.85,104.73,524.69,106.33,525.05z"/>
			<path class="st4" d="M106.17,518.2c3.9,0-0.3-5.41-0.88-6.26c-2.05-2.84-4.23-5.59-6.53-8.23c-1.08-1.64-2.49-2.84-4.25-3.6
				c-3.9,0,0.3,5.41,0.88,6.26c2.05,2.84,4.23,5.59,6.53,8.23C103,516.24,104.42,517.44,106.17,518.2z"/>
			<path class="st4" d="M94.59,513.57c1.13,0,2.62-1.3,2.57-2.49c-0.05-1.07-1.97-3.18-3.09-3.18c-1.13,0-2.62,1.3-2.57,2.49
				C91.55,511.46,93.47,513.57,94.59,513.57z"/>
			<path class="st4" d="M91.02,517.66c0.87-0.19,1.32-0.73,1.34-1.62c-0.29-1.37-1.05-2.46-2.25-3.27
				c-1.79-1.68-3.68-3.23-5.67-4.67c-1.03-1.03-2.24-1.55-3.64-1.58c-0.87,0.19-1.32,0.73-1.34,1.62c0.29,1.37,1.05,2.46,2.25,3.27
				c1.79,1.68,3.68,3.23,5.67,4.67C88.41,517.1,89.62,517.63,91.02,517.66z"/>
			<path class="st4" d="M98.29,527.27c0.91-0.21,1.32-0.78,1.23-1.71c-0.5-1.44-1.43-2.56-2.8-3.36c-2.11-1.72-4.32-3.3-6.62-4.76
				c-1.19-1.04-2.55-1.57-4.08-1.58c-0.91,0.21-1.32,0.78-1.23,1.71c0.5,1.44,1.43,2.56,2.8,3.36c2.11,1.72,4.32,3.3,6.62,4.76
				C95.4,526.73,96.76,527.26,98.29,527.27z"/>
			<path class="st4" d="M105.46,510.86c2.92,0,1.45-3.31,0.76-4.61c-1.09-1.91-2.3-3.73-3.65-5.46c-0.63-1.17-1.57-1.91-2.81-2.23
				c-2.92,0-1.45,3.31-0.76,4.61c1.09,1.91,2.3,3.73,3.65,5.46C103.29,509.8,104.23,510.54,105.46,510.86z"/>
			<path class="st4" d="M93.63,524.46c0.89-0.23,1.29-0.81,1.21-1.72c-0.47-1.4-1.37-2.48-2.7-3.24c-2.05-1.64-4.18-3.15-6.41-4.53
				c-1.16-1-2.48-1.49-3.96-1.46c-0.89,0.23-1.29,0.81-1.21,1.72c0.47,1.4,1.37,2.48,2.7,3.24c2.05,1.64,4.18,3.15,6.41,4.53
				C90.83,524,92.15,524.49,93.63,524.46z"/>
			<path class="st4" d="M104.61,510.97c0.71-0.2,1.29-0.6,1.73-1.2c0.42-0.65,0.4-1.31-0.04-1.98c-0.47-0.96-1.08-1.84-1.81-2.62
				c-0.47-0.65-1.08-0.9-1.84-0.74c-0.71,0.2-1.29,0.6-1.73,1.2c-0.42,0.65-0.4,1.31,0.04,1.98c0.47,0.96,1.08,1.84,1.81,2.62
				C103.23,510.88,103.85,511.13,104.61,510.97z"/>
			<path class="st4" d="M91.94,517.5c1.15,0,2.51-1.57,2.35-2.7c-0.16-1.15-2.29-3-3.45-3c-1.15,0-2.51,1.57-2.35,2.7
				C88.65,515.65,90.78,517.5,91.94,517.5z"/>
		</g>
	</g>
</g>
<g class="st3">
	<g>
		<g>
			<path class="st4" d="M509.85,359.18c4.42,0-2.41-6.37-2.42-6.38c-2.8-2.67-5.71-5.22-8.72-7.65c-1.48-1.54-3.23-2.59-5.25-3.15
				c-4.42,0,2.41,6.37,2.42,6.38c2.8,2.67,5.71,5.22,8.72,7.65C506.09,357.57,507.84,358.62,509.85,359.18z"/>
			<path class="st4" d="M512.89,351.42c3.62,0-0.01-4.81-0.57-5.58c-1.8-2.35-3.73-4.59-5.77-6.73c-0.98-1.39-2.25-2.31-3.83-2.78
				c-3.62,0,0.01,4.81,0.57,5.58c1.8,2.35,3.73,4.59,5.77,6.73C510.04,350.02,511.31,350.95,512.89,351.42z"/>
			<path class="st4" d="M514.73,357.6c1.21,0.25,1.72-0.23,1.52-1.45c-0.87-2.24-2.22-4.19-4.05-5.82
				c-2.99-3.36-6.09-6.62-9.31-9.76c-1.55-1.9-3.43-3.34-5.63-4.32c-1.21-0.25-1.71,0.23-1.52,1.45c0.87,2.24,2.22,4.19,4.05,5.82
				c2.99,3.36,6.09,6.62,9.31,9.76C510.65,355.19,512.53,356.62,514.73,357.6z"/>
			<path class="st4" d="M521.67,365.77c3.72,0-0.53-5.02-0.95-5.52c-1.96-2.22-4.03-4.32-6.22-6.31c-1.07-1.31-2.41-2.15-4.01-2.51
				c-3.72,0,0.53,5.02,0.95,5.52c1.96,2.22,4.03,4.32,6.22,6.31C518.73,364.57,520.07,365.41,521.67,365.77z"/>
			<path class="st4" d="M521.51,358.92c3.9,0-0.3-5.41-0.88-6.26c-2.05-2.84-4.23-5.59-6.53-8.23c-1.08-1.64-2.49-2.84-4.25-3.6
				c-3.9,0,0.3,5.41,0.88,6.26c2.05,2.84,4.23,5.59,6.53,8.23C518.34,356.96,519.75,358.16,521.51,358.92z"/>
			<path class="st4" d="M509.93,354.29c1.13,0,2.62-1.3,2.57-2.49c-0.05-1.07-1.97-3.18-3.09-3.18c-1.13,0-2.62,1.3-2.57,2.49
				C506.89,352.18,508.81,354.29,509.93,354.29z"/>
			<path class="st4" d="M506.35,358.38c0.87-0.19,1.32-0.73,1.34-1.62c-0.29-1.37-1.05-2.46-2.25-3.27
				c-1.79-1.68-3.68-3.23-5.67-4.67c-1.03-1.03-2.24-1.55-3.64-1.58c-0.87,0.19-1.32,0.73-1.34,1.62c0.29,1.37,1.05,2.46,2.25,3.27
				c1.79,1.68,3.68,3.23,5.67,4.67C503.74,357.82,504.96,358.35,506.35,358.38z"/>
			<path class="st4" d="M513.62,367.99c0.91-0.21,1.32-0.78,1.23-1.71c-0.5-1.44-1.43-2.56-2.8-3.36c-2.11-1.71-4.32-3.3-6.62-4.76
				c-1.19-1.04-2.55-1.57-4.08-1.58c-0.91,0.21-1.32,0.78-1.23,1.71c0.5,1.44,1.43,2.56,2.8,3.36c2.11,1.72,4.32,3.3,6.62,4.76
				C510.74,367.45,512.1,367.98,513.62,367.99z"/>
			<path class="st4" d="M520.8,351.58c2.92,0,1.45-3.31,0.76-4.61c-1.09-1.91-2.3-3.73-3.65-5.46c-0.63-1.17-1.57-1.91-2.81-2.23
				c-2.92,0-1.45,3.31-0.76,4.61c1.09,1.91,2.3,3.73,3.65,5.46C518.63,350.52,519.56,351.26,520.8,351.58z"/>
			<path class="st4" d="M508.96,365.18c0.89-0.23,1.29-0.81,1.21-1.72c-0.47-1.4-1.37-2.48-2.7-3.24c-2.05-1.64-4.18-3.15-6.41-4.53
				c-1.16-1-2.48-1.49-3.96-1.46c-0.89,0.23-1.29,0.81-1.21,1.72c0.47,1.4,1.37,2.48,2.7,3.24c2.05,1.64,4.18,3.15,6.41,4.53
				C506.17,364.72,507.49,365.21,508.96,365.18z"/>
			<path class="st4" d="M519.94,351.69c0.71-0.2,1.29-0.6,1.73-1.2c0.42-0.65,0.4-1.31-0.04-1.98c-0.47-0.96-1.08-1.84-1.81-2.62
				c-0.47-0.65-1.08-0.9-1.84-0.74c-0.71,0.2-1.29,0.6-1.73,1.2c-0.42,0.65-0.4,1.31,0.04,1.98c0.47,0.96,1.08,1.84,1.81,2.62
				C518.57,351.6,519.18,351.85,519.94,351.69z"/>
			<path class="st4" d="M507.28,358.22c1.15,0,2.51-1.57,2.35-2.7c-0.16-1.15-2.29-3-3.45-3c-1.15,0-2.51,1.57-2.35,2.7
				C503.99,356.37,506.12,358.22,507.28,358.22z"/>
		</g>
	</g>
</g>
<path class="st3" d="M1302.19,323.66c-6.43,0-6.45,10,0,10C1308.63,333.66,1308.64,323.66,1302.19,323.66z"/>
<g>
	<g>
		<path class="st5" d="M630.8-60.46"/>
	</g>
</g>
<path class="st6" d="M497.27-23.63c-2.17-0.62-30.92-8.33-52.21,10.69c-12.02,10.74-15.35,24.36-16.34,29.63
	c-1.5,6.41-3.11,16.32-2.02,28.23c0.82,8.94,3.02,17.24,12.1,38.31c4.72,10.96,11.36,25.47,20.16,42.34
	c7.48,4.29,21.55,11,40.32,12.1c27.07,1.58,47.05-9.5,54.44-14.11c8.06-2.02,16.13-4.03,24.19-6.05
	c3.15-6.14,16.26-33.28,6.05-64.52c-5.18-15.84-14.31-26.49-20.16-32.26c0.16-3.87,0.46-20.98-12.1-34.28
	C538.65-27.37,517-31.47,497.27-23.63z"/>
<path class="st6" d="M384.19-26.23c-2.17-0.62-30.92-8.33-52.21,10.69c-12.02,10.74-15.35,24.36-16.34,29.63
	c-1.5,6.41-3.11,16.32-2.02,28.23c0.82,8.94,3.02,17.24,12.1,38.31c4.72,10.96,11.36,25.47,20.16,42.34
	c7.48,4.29,21.55,11,40.32,12.1c27.07,1.58,47.05-9.5,54.44-14.11c8.06-2.02,16.13-4.03,24.19-6.05
	c3.15-6.14,16.26-33.28,6.05-64.52c-5.18-15.84-14.31-26.49-20.16-32.26c0.16-3.87,0.46-20.98-12.1-34.28
	C425.58-29.96,403.93-34.07,384.19-26.23z"/>
<path class="st6" d="M768.46-30.95c-2.17-0.62-30.92-8.33-52.21,10.69C704.22-9.51,700.9,4.11,699.91,9.38
	c-1.5,6.41-3.11,16.32-2.02,28.23c0.82,8.94,3.02,17.24,12.1,38.31c4.72,10.96,11.36,25.47,20.16,42.34
	c7.48,4.29,21.55,11,40.32,12.1c27.07,1.58,47.05-9.5,54.44-14.11c8.06-2.02,16.13-4.03,24.19-6.05
	c3.15-6.14,16.26-33.28,6.05-64.52c-5.18-15.84-14.31-26.49-20.16-32.26c0.16-3.87,0.46-20.98-12.1-34.28
	C809.85-34.68,788.19-38.78,768.46-30.95z"/>
<g>
	<g>
		<path class="st5" d="M634.83-44.33"/>
	</g>
</g>
<g>
	<path class="st7" d="M446.16,46.29c-1.49-0.43-21.16-5.7-35.72,7.32c-8.23,7.35-10.5,16.67-11.18,20.27
		c-1.03,4.39-2.13,11.17-1.38,19.31c0.56,6.12,2.06,11.8,8.28,26.21c3.23,7.5,7.77,17.43,13.79,28.97
		c5.12,2.94,14.74,7.53,27.59,8.28c18.52,1.08,32.19-6.5,37.24-9.66c5.52-1.38,11.04-2.76,16.55-4.14
		c2.16-4.2,11.12-22.77,4.14-44.14c-3.54-10.84-9.79-18.12-13.79-22.07c0.11-2.65,0.32-14.35-8.28-23.45
		C474.48,43.74,459.67,40.93,446.16,46.29z"/>
	<path class="st8" d="M525.96,120.99c-13.99-13.83-31.82-17.68-42.93-10.81c-6.19,3.82-12.54,12.35-11.18,20.27
		c1.48,8.56,10.61,8.47,12.94,16.53c3.69,12.77-16.46,22.66-14.82,36.67c0.66,5.66,5.03,13.36,22.57,21.29
		c5.12,2.94,14.74,7.53,27.59,8.28c18.52,1.08,32.19-6.5,37.24-9.66c5.52-1.38,11.04-2.76,16.55-4.14
		c-3.55-3.86-14.37-16.6-15.7-36.09c-0.97-14.19,3.56-25.09,6.05-30.12c2.37-9.59-1.27-19.22-8.28-23.45
		C546.72,104.17,531.98,108.27,525.96,120.99z"/>
</g>
<g>
	<path class="st7" d="M596.04,23.93c-1.49-0.43-21.16-5.7-35.72,7.32c-8.23,7.35-10.5,16.67-11.18,20.27
		c-1.03,4.39-2.13,11.17-1.38,19.31c0.56,6.12,2.06,11.8,8.28,26.21c3.23,7.5,7.77,17.43,13.79,28.97
		c5.12,2.94,14.74,7.53,27.59,8.28c18.52,1.08,32.19-6.5,37.24-9.66c5.52-1.38,11.04-2.76,16.55-4.14
		c2.16-4.2,11.12-22.77,4.14-44.14c-3.54-10.84-9.79-18.12-13.79-22.07c0.11-2.65,0.32-14.35-8.28-23.45
		C624.35,21.38,609.54,18.57,596.04,23.93z"/>
	<path class="st8" d="M675.83,98.64c-13.99-13.83-31.82-17.68-42.93-10.81c-6.19,3.82-12.54,12.35-11.18,20.27
		c1.48,8.56,10.61,8.47,12.94,16.53c3.69,12.77-16.46,22.66-14.82,36.67c0.66,5.66,5.03,13.36,22.57,21.29
		c5.12,2.94,14.74,7.53,27.59,8.28c18.52,1.08,32.19-6.5,37.24-9.66c5.52-1.38,11.04-2.76,16.55-4.14
		c-3.55-3.86-14.37-16.6-15.7-36.09c-0.97-14.19,3.56-25.09,6.05-30.12c2.37-9.59-1.27-19.22-8.28-23.45
		C696.6,81.81,681.86,85.91,675.83,98.64z"/>
</g>
<g>
	<path class="st6" d="M579.02,38.24c-2.17-0.62-30.92-8.33-52.21,10.69c-12.02,10.74-15.35,24.36-16.34,29.63
		c-1.5,6.41-3.11,16.32-2.02,28.23c0.82,8.94,3.02,17.24,12.1,38.31c4.72,10.96,11.36,25.47,20.16,42.34
		c7.48,4.29,21.55,11,40.32,12.1c27.07,1.58,47.05-9.5,54.44-14.11c8.06-2.02,16.13-4.03,24.19-6.05
		c3.15-6.14,16.26-33.28,6.05-64.52c-5.18-15.84-14.31-26.49-20.16-32.26c0.16-3.87,0.46-20.98-12.1-34.28
		C620.41,34.5,598.76,30.4,579.02,38.24z"/>
	<path class="st6" d="M554.57,118.48c-0.82-0.24-11.7-3.15-19.75,4.05c-4.55,4.06-5.81,9.22-6.18,11.21
		c-0.57,2.43-1.18,6.17-0.76,10.68c0.31,3.38,1.14,6.52,4.58,14.49c1.79,4.15,4.3,9.64,7.63,16.02c2.83,1.62,8.15,4.16,15.26,4.58
		c10.24,0.6,17.8-3.59,20.6-5.34c3.05-0.76,6.1-1.53,9.15-2.29c1.19-2.32,6.15-12.59,2.29-24.41c-1.96-5.99-5.41-10.02-7.63-12.2
		c0.06-1.46,0.17-7.94-4.58-12.97C570.23,117.07,562.04,115.52,554.57,118.48z"/>
	<path class="st6" d="M585.11,73.4c-0.82-0.24-11.7-3.15-19.75,4.05c-4.55,4.06-5.81,9.22-6.18,11.21
		c-0.57,2.43-1.18,6.17-0.76,10.68c0.31,3.38,1.14,6.52,4.58,14.49c1.79,4.15,4.3,9.64,7.63,16.02c2.83,1.62,8.15,4.16,15.26,4.58
		c10.24,0.6,17.8-3.59,20.6-5.34c3.05-0.76,6.1-1.53,9.15-2.29c1.19-2.32,6.15-12.59,2.29-24.41c-1.96-5.99-5.41-10.02-7.63-12.2
		c0.06-1.46,0.17-7.94-4.58-12.97C600.77,71.98,592.58,70.43,585.11,73.4z"/>
</g>
<path class="st6" d="M675.75-8.56c-0.82-0.24-11.7-3.15-19.75,4.05c-4.55,4.06-5.81,9.22-6.18,11.21
	c-0.57,2.43-1.18,6.17-0.76,10.68c0.31,3.38,1.14,6.52,4.58,14.49c1.79,4.15,4.3,9.64,7.63,16.02c2.83,1.62,8.15,4.16,15.26,4.58
	c10.24,0.6,17.8-3.59,20.6-5.34c3.05-0.76,6.1-1.53,9.15-2.29c1.19-2.32,6.15-12.59,2.29-24.41c-1.96-5.99-5.41-10.02-7.63-12.2
	c0.06-1.46,0.17-7.94-4.58-12.97C691.41-9.97,683.22-11.52,675.75-8.56z"/>
<path class="st6" d="M718.75,18.01c-0.82-0.24-11.7-3.15-19.75,4.05c-4.55,4.06-5.81,9.22-6.18,11.21
	c-0.57,2.43-1.18,6.17-0.76,10.68c0.31,3.38,1.14,6.52,4.58,14.49c1.79,4.15,4.3,9.64,7.63,16.02c2.83,1.62,8.15,4.16,15.26,4.58
	c10.24,0.6,17.8-3.59,20.6-5.34c3.05-0.76,6.1-1.53,9.15-2.29c1.19-2.32,6.15-12.59,2.29-24.41c-1.96-5.99-5.41-10.02-7.63-12.2
	c0.06-1.46,0.17-7.94-4.58-12.97C734.41,16.6,726.22,15.05,718.75,18.01z"/>
<path class="st9" d="M404.29,38.24c-2.17-0.62-30.92-8.33-52.21,10.69c-12.02,10.74-15.35,24.36-16.34,29.63
	c-1.5,6.41-3.11,16.32-2.02,28.23c0.82,8.94,3.02,17.24,12.1,38.31c4.72,10.96,11.36,25.47,20.16,42.34
	c7.48,4.29,21.55,11,40.32,12.1c27.07,1.58,47.05-9.5,54.44-14.11c8.06-2.02,16.13-4.03,24.19-6.05
	c3.15-6.14,16.26-33.28,6.05-64.52c-5.18-15.84-14.31-26.49-20.16-32.26c0.16-3.87,0.46-20.98-12.1-34.28
	C445.68,34.5,424.03,30.4,404.29,38.24z"/>
<path class="st9" d="M274.69-15.11c-2.17-0.62-30.92-8.33-52.21,10.69c-12.02,10.74-15.35,24.36-16.34,29.63
	c-1.5,6.41-3.11,16.32-2.02,28.23c0.82,8.94,3.02,17.24,12.1,38.31c4.72,10.96,11.36,25.47,20.16,42.34
	c7.48,4.29,21.55,11,40.32,12.1c27.07,1.58,47.05-9.5,54.44-14.11c8.06-2.02,16.13-4.03,24.19-6.05
	c3.15-6.14,16.26-33.28,6.05-64.52c-5.18-15.84-14.31-26.49-20.16-32.26c0.16-3.87,0.46-20.98-12.1-34.28
	C316.08-18.84,294.43-22.94,274.69-15.11z"/>
<path class="st9" d="M151.53-30.95c-2.17-0.62-30.92-8.33-52.21,10.69C87.3-9.51,83.98,4.11,82.98,9.38
	c-1.5,6.41-3.11,16.32-2.02,28.23c0.82,8.94,3.02,17.24,12.1,38.31c4.72,10.96,11.36,25.47,20.16,42.34
	c7.48,4.29,21.55,11,40.32,12.1c27.07,1.58,47.05-9.5,54.44-14.11c8.06-2.02,16.13-4.03,24.19-6.05
	c3.15-6.14,16.26-33.28,6.05-64.52c-5.18-15.84-14.31-26.49-20.16-32.26c0.16-3.87,0.46-20.98-12.1-34.28
	C192.92-34.68,171.27-38.78,151.53-30.95z"/>
<path class="st9" d="M52.12-15.11C49.94-15.73,21.19-23.44-0.1-4.41C-12.12,6.33-15.44,19.95-16.44,25.22
	c-1.5,6.41-3.11,16.32-2.02,28.23c0.82,8.94,3.02,17.24,12.1,38.31c4.72,10.96,11.36,25.47,20.16,42.34
	c7.48,4.29,21.55,11,40.32,12.1c27.07,1.58,47.05-9.5,54.44-14.11c8.06-2.02,16.13-4.03,24.19-6.05
	c3.15-6.14,16.26-33.28,6.05-64.52c-5.18-15.84-14.31-26.49-20.16-32.26c0.16-3.87,0.46-20.98-12.1-34.28
	C93.5-18.84,71.85-22.94,52.12-15.11z"/>
<path class="st9" d="M985.52-57.52c-2.17-0.62-30.92-8.33-52.21,10.69c-12.02,10.74-15.35,24.36-16.34,29.63
	c-1.5,6.41-3.11,16.32-2.02,28.23c0.82,8.94,3.02,17.24,12.1,38.31c4.72,10.96,11.36,25.47,20.16,42.34
	c7.48,4.29,21.55,11,40.32,12.1c27.07,1.58,47.05-9.5,54.44-14.11c8.06-2.02,16.13-4.03,24.19-6.05
	c3.15-6.14,16.26-33.28,6.05-64.52c-5.18-15.84-14.31-26.49-20.16-32.26c0.16-3.87,0.46-20.98-12.1-34.28
	C1026.91-61.25,1005.26-65.35,985.52-57.52z"/>
<g>
	<path class="st7" d="M177.45-60.93c-1.49-0.43-21.16-5.7-35.72,7.32c-8.23,7.35-10.5,16.67-11.18,20.27
		c-1.03,4.39-2.13,11.17-1.38,19.31c0.56,6.12,2.06,11.8,8.28,26.21c3.23,7.5,7.77,17.43,13.79,28.97
		c5.12,2.94,14.74,7.53,27.59,8.28c18.52,1.08,32.19-6.5,37.24-9.66c5.52-1.38,11.04-2.76,16.55-4.14
		c2.16-4.2,11.12-22.77,4.14-44.14c-3.54-10.84-9.79-18.12-13.79-22.07c0.11-2.65,0.32-14.35-8.28-23.45
		C205.77-63.49,190.95-66.29,177.45-60.93z"/>
	<path class="st8" d="M257.25,13.77C243.26-0.06,225.43-3.91,214.31,2.96c-6.19,3.82-12.54,12.35-11.18,20.27
		c1.48,8.56,10.61,8.47,12.94,16.53c3.69,12.77-16.46,22.66-14.82,36.67c0.66,5.66,5.03,13.36,22.57,21.29
		c5.12,2.94,14.74,7.53,27.59,8.28c18.52,1.08,32.19-6.5,37.24-9.66c5.52-1.38,11.04-2.76,16.55-4.14
		c-3.55-3.86-14.37-16.6-15.7-36.09c-0.97-14.19,3.56-25.09,6.05-30.12c2.37-9.59-1.27-19.22-8.28-23.45
		C278.01-3.05,263.27,1.05,257.25,13.77z"/>
</g>
<path class="st9" d="M1112.46-44.46c-2.17-0.62-30.92-8.33-52.21,10.69c-12.02,10.74-15.35,24.36-16.34,29.63
	c-1.5,6.41-3.11,16.32-2.02,28.23c0.82,8.94,3.02,17.24,12.1,38.31c4.72,10.96,11.36,25.47,20.16,42.34
	c7.48,4.29,21.55,11,40.32,12.1c27.07,1.58,47.05-9.5,54.44-14.11c8.06-2.02,16.13-4.03,24.19-6.05
	c3.15-6.14,16.26-33.28,6.05-64.52c-5.18-15.84-14.31-26.49-20.16-32.26c0.16-3.87,0.46-20.98-12.1-34.28
	C1153.85-48.19,1132.19-52.29,1112.46-44.46z"/>
<path class="st9" d="M1130.76-62.23c-2.17-0.62-30.92-8.33-52.21,10.69c-12.02,10.74-15.35,24.36-16.34,29.63
	c-1.5,6.41-3.11,16.32-2.02,28.23c0.82,8.94,3.02,17.24,12.1,38.31c4.72,10.96,11.36,25.47,20.16,42.34
	c7.48,4.29,21.55,11,40.32,12.1c27.07,1.58,47.05-9.5,54.44-14.11c8.06-2.02,16.13-4.03,24.19-6.05
	c3.15-6.14,16.26-33.28,6.05-64.52c-5.18-15.84-14.31-26.49-20.16-32.26c0.16-3.87,0.46-20.98-12.1-34.28
	C1172.15-65.97,1150.5-70.07,1130.76-62.23z"/>
<path class="st9" d="M630.11-35.16c-2.17-0.62-30.92-8.33-52.21,10.69C565.87-13.72,562.55-0.1,561.56,5.17
	c-1.5,6.41-3.11,16.32-2.02,28.23c0.82,8.94,3.02,17.24,12.1,38.31c4.72,10.96,11.36,25.47,20.16,42.34
	c7.48,4.29,21.55,11,40.32,12.1c27.07,1.58,47.05-9.5,54.44-14.11c8.06-2.02,16.13-4.03,24.19-6.05
	c3.15-6.14,16.26-33.28,6.05-64.52c-5.18-15.84-14.31-26.49-20.16-32.26c0.16-3.87,0.46-20.98-12.1-34.28
	C671.49-38.89,649.84-42.99,630.11-35.16z"/>
<path class="st6" d="M452.66,64.49c-0.82-0.24-11.7-3.15-19.75,4.05c-4.55,4.06-5.81,9.22-6.18,11.21
	c-0.57,2.43-1.18,6.17-0.76,10.68c0.31,3.38,1.14,6.52,4.58,14.49c1.79,4.15,4.3,9.64,7.63,16.02c2.83,1.62,8.15,4.16,15.26,4.58
	c10.24,0.6,17.8-3.59,20.6-5.34c3.05-0.76,6.1-1.53,9.15-2.29c1.19-2.32,6.15-12.59,2.29-24.41c-1.96-5.99-5.41-10.02-7.63-12.2
	c0.06-1.46,0.17-7.94-4.58-12.97C468.31,63.08,460.12,61.53,452.66,64.49z"/>
<g>
	<path class="st7" d="M1014.63-34.36c-1.49-0.43-21.16-5.7-35.72,7.32c-8.23,7.35-10.5,16.67-11.18,20.27
		c-1.03,4.39-2.13,11.17-1.38,19.31c0.56,6.12,2.06,11.8,8.28,26.21c3.23,7.5,7.77,17.43,13.79,28.97
		c5.12,2.94,14.74,7.53,27.59,8.28c18.52,1.08,32.19-6.5,37.24-9.66c5.52-1.38,11.04-2.76,16.55-4.14
		c2.16-4.2,11.12-22.77,4.14-44.14c-3.54-10.84-9.79-18.12-13.79-22.07c0.11-2.65,0.32-14.35-8.28-23.45
		C1042.94-36.92,1028.13-39.72,1014.63-34.36z"/>
	<path class="st8" d="M1094.42,40.34c-13.99-13.83-31.82-17.68-42.93-10.81c-6.19,3.82-12.54,12.35-11.18,20.27
		c1.48,8.56,10.61,8.47,12.94,16.53c3.69,12.77-16.46,22.66-14.82,36.67c0.66,5.66,5.03,13.36,22.57,21.29
		c5.12,2.94,14.74,7.53,27.59,8.28c18.52,1.08,32.19-6.5,37.24-9.66c5.52-1.38,11.04-2.76,16.55-4.14
		c-3.55-3.86-14.37-16.6-15.7-36.09c-0.97-14.19,3.56-25.09,6.05-30.12c2.37-9.59-1.27-19.22-8.28-23.45
		C1115.19,23.52,1100.45,27.62,1094.42,40.34z"/>
</g>
<path class="st6" d="M125.22,71.25c-0.82-0.24-11.7-3.15-19.75,4.05c-4.55,4.06-5.81,9.22-6.18,11.21
	c-0.57,2.43-1.18,6.17-0.76,10.68c0.31,3.38,1.14,6.52,4.58,14.49c1.79,4.15,4.3,9.64,7.63,16.02c2.83,1.62,8.15,4.16,15.26,4.58
	c10.24,0.6,17.8-3.59,20.6-5.34c3.05-0.76,6.1-1.53,9.15-2.29c1.19-2.32,6.15-12.59,2.29-24.41c-1.96-5.99-5.41-10.02-7.63-12.2
	c0.06-1.46,0.17-7.94-4.58-12.97C140.88,69.83,132.68,68.28,125.22,71.25z"/>
<path class="st6" d="M729.76,77.06c-0.82-0.24-11.7-3.15-19.75,4.05c-4.55,4.06-5.81,9.22-6.18,11.21
	c-0.57,2.43-1.18,6.17-0.76,10.68c0.31,3.38,1.14,6.52,4.58,14.49c1.79,4.15,4.3,9.64,7.63,16.02c2.83,1.62,8.15,4.16,15.26,4.58
	c10.24,0.6,17.8-3.59,20.6-5.34c3.05-0.76,6.1-1.53,9.15-2.29c1.19-2.32,6.15-12.59,2.29-24.41c-1.96-5.99-5.41-10.02-7.63-12.2
	c0.06-1.46,0.17-7.94-4.58-12.97C745.42,75.65,737.22,74.1,729.76,77.06z"/>
<path class="st10" d="M794.11,84.7c-8.5,21.57-9.75,23.63-8.89,28.41c2.26,12.58,14.8,19.81,29.05,28.04
	c15.37,8.87,27.82,15.8,40.32,12.1c13.14-3.9,11.17-16.97,26.21-28.23c22.82-17.08,50.27-4.13,54.44-14.11
	c2.88-6.89-9.47-18.13-34.28-40.32c-39-34.89-50.19-36.27-56.45-36.29c-19.35-0.06-32.91,12.78-34.28,14.11
	C805.63,52.91,805.67,55.37,794.11,84.7z"/>
<path class="st10" d="M742.59,63.06c-8.5,21.57-9.75,23.63-8.89,28.41c2.26,12.58,14.8,19.81,29.05,28.04
	c15.37,8.87,27.82,15.8,40.32,12.1c13.14-3.9,11.17-16.97,26.21-28.23c22.82-17.08,50.27-4.13,54.44-14.11
	c2.88-6.89-9.47-18.13-34.28-40.32c-39-34.89-50.19-36.27-56.45-36.29c-19.35-0.06-32.91,12.78-34.28,14.11
	C754.11,31.26,754.14,33.73,742.59,63.06z"/>
<path class="st6" d="M883.02-6.11c-2.17-0.62-30.92-8.33-52.21,10.69c-12.02,10.74-15.35,24.36-16.34,29.63
	c-1.5,6.41-3.11,16.32-2.02,28.23c0.82,8.94,3.02,17.24,12.1,38.31c4.72,10.96,11.36,25.47,20.16,42.34
	c7.48,4.29,21.55,11,40.32,12.1c27.07,1.58,47.05-9.5,54.44-14.11c8.06-2.02,16.13-4.03,24.19-6.05
	c3.15-6.14,16.26-33.28,6.05-64.52c-5.18-15.84-14.31-26.49-20.16-32.26c0.16-3.87,0.46-20.98-12.1-34.28
	C924.41-9.84,902.76-13.94,883.02-6.11z"/>
<path class="st6" d="M962.42-8.56c-0.82-0.24-11.7-3.15-19.75,4.05c-4.55,4.06-5.81,9.22-6.18,11.21
	c-0.57,2.43-1.18,6.17-0.76,10.68c0.31,3.38,1.14,6.52,4.58,14.49c1.79,4.15,4.3,9.64,7.63,16.02c2.83,1.62,8.15,4.16,15.26,4.58
	c10.24,0.6,17.8-3.59,20.6-5.34c3.05-0.76,6.1-1.53,9.15-2.29c1.19-2.32,6.15-12.59,2.29-24.41c-1.96-5.99-5.41-10.02-7.63-12.2
	c0.06-1.46,0.17-7.94-4.58-12.97C978.08-9.97,969.89-11.52,962.42-8.56z"/>
</svg>
