<?xml version="1.0" encoding="utf-8"?>
<!-- Generator: Adobe Illustrator 25.2.1, SVG Export Plug-In . SVG Version: 6.00 Build 0)  -->
<svg version="1.1" id="Layer_1" xmlns="http://www.w3.org/2000/svg" xmlns:xlink="http://www.w3.org/1999/xlink" x="0px" y="0px"
	 viewBox="0 0 200 100" style="enable-background:new 0 0 200 100;" xml:space="preserve">
<style type="text/css">
	.st0{fill:#BDCCD4;}
	.st1{fill:#808080;stroke:#000000;stroke-miterlimit:10;}
	.st2{fill:#ABADB0;stroke:#000000;stroke-miterlimit:10;}
	.st3{fill:#5D5E61;stroke:#000000;stroke-miterlimit:10;}
	.st4{fill:#333333;stroke:#000000;stroke-miterlimit:10;}
	.st5{fill:#D6C2AD;}
	.st6{fill:#ABADB0;}
	.st7{fill:#FFFFFF;stroke:#000000;stroke-miterlimit:10;}
	.st8{fill:#731224;stroke:#000000;stroke-miterlimit:10;}
	.st9{fill:#E7E7E0;stroke:#000000;stroke-miterlimit:10;}
	.st10{fill:none;stroke:#000000;stroke-width:0.5;stroke-miterlimit:10.001;}
	.st11{opacity:0.4;fill:#A4C2DB;enable-background:new    ;}
	.st12{fill:none;stroke:#000000;stroke-miterlimit:10;}
	.st13{fill:#E7E7E0;stroke:#000000;stroke-width:1;stroke-miterlimit:10.0004;}
	.st14{fill:#BDCCD4;stroke:#000000;stroke-miterlimit:10;}
	.st15{fill:#ED1C24;stroke:#000000;stroke-miterlimit:10;}
	.st16{fill:#FCEE21;stroke:#000000;stroke-miterlimit:10;}
	.st17{fill:#A3A5A8;stroke:#000000;stroke-miterlimit:10;}
	.st18{fill:#8F8E8E;stroke:#000000;stroke-miterlimit:10;}
</style>
<path class="st0" d="M92.24,109.03"/>
<path d="M158.41,90.89h-23.15v-5.88c3.86,0,7.72,0,11.58,0s7.72,0,11.58,0C158.41,86.98,158.41,88.93,158.41,90.89z"/>
<path d="M158.41,11.42h-23.15V5.54c3.86,0,7.72,0,11.58,0s7.72,0,11.58,0C158.41,7.51,158.41,9.47,158.41,11.42z"/>
<path d="M64.12,15.12H40.96V9.24c3.86,0,7.72,0,11.58,0s7.72,0,11.58,0C64.12,11.21,64.12,13.16,64.12,15.12z"/>
<path d="M64.12,90.89H40.96v-5.88c3.86,0,7.72,0,11.58,0s7.72,0,11.58,0C64.12,86.98,64.12,88.93,64.12,90.89z"/>
<path class="st1" d="M128.65,88.71h-4.97v11.08c1.11,0,2.2,0,3.31,0c0.57-1.22,1.3-3.11,1.66-5.54
	C128.97,91.96,128.83,90.02,128.65,88.71z"/>
<path class="st1" d="M128.65,11.08h-4.97V0c1.11,0,2.2,0,3.31,0c0.57,1.22,1.3,3.11,1.66,5.54C128.97,7.83,128.83,9.78,128.65,11.08
	z"/>
<path class="st2" d="M161.73,86.85c-11.03,0.61-22.06,1.23-33.09,1.84V9.24c11.03,0,22.06,0,33.09,0
	c3.75,3.11,8.92,8.44,11.58,16.64c1.18,3.65,1.04,5.31,1.66,20.32c0.77,18.64,1.16,20.27,0,24.02
	C173.82,73.93,170.81,80.74,161.73,86.85z"/>
<polygon class="st3" points="165.77,32.08 165.99,65.24 158.01,75.86 126.2,77.29 129.28,50.94 128.82,30.58 127.75,21.13
	157.55,21.43 "/>
<path class="st2" d="M128.65,88.71c-25.92-0.61-51.84-1.23-77.75-1.84V12.94c25.92-1.23,51.84-2.47,77.75-3.7
	C128.65,35.73,128.65,62.22,128.65,88.71z"/>
<path class="st4" d="M117.06,73.93c-19.02-0.3-38.05-0.61-57.07-0.93c1.34,3,2.66,6.01,4,9.01c16.62,0.39,33.25,0.77,49.85,1.16
	C114.92,80.08,115.99,77,117.06,73.93z"/>
<path class="st4" d="M117.06,25.86c-19.57,0.93-39.14,1.84-58.72,2.77c1.38-3.61,2.75-7.24,4.13-10.85
	c17.09-0.39,34.19-0.77,51.28-1.16C114.85,19.72,115.96,22.79,117.06,25.86z"/>
<polygon class="st5" points="53,78.61 56.22,81.17 66.75,64.58 63.53,62.02 "/>
<polygon class="st5" points="54.83,16.66 52.06,19.77 64.91,34.14 67.7,31.03 "/>
<polygon class="st6" points="109.25,30.57 114.35,34.6 124.88,18.02 119.76,13.98 "/>
<polygon class="st6" points="112.26,65.6 108.66,69.05 120.59,84.42 124.16,80.95 "/>
<path class="st4" d="M127.81,80.38c-4.41-2.16-8.83-4.31-13.23-6.47c0-16.64,0-33.26,0-49.91c4.41-1.54,8.83-3.07,13.23-4.61
	c2.09,7.53,4.34,18.7,4.13,32.33C131.74,63.6,129.76,73.41,127.81,80.38z"/>
<path class="st7" d="M115.31,21"/>
<path class="st2" d="M122.02,9.24l-7.44,14.78L122.02,9.24z"/>
<path class="st8" d="M120.37,88.71l-7.44-14.78L120.37,88.71z"/>
<path class="st9" d="M80.79,77.56l39.58-2c0-18.12,0-36.21,0-54.34c-13.19-0.66-26.39-1.34-39.58-2"/>
<path class="st7" d="M171.58,26.19c-1.57,0.95-3.15,1.88-4.74,2.82l-8.28-11.53c1.39-1.72,2.79-3.43,4.18-5.15
	c1.18,0.93,2.77,2.38,4.34,4.49C169.92,20.59,171.1,24.34,171.58,26.19z"/>
<path class="st7" d="M164.27,82.51c-1.27-1.41-2.54-2.82-3.81-4.24l7.45-12.21c1.88,0.98,3.75,1.97,5.63,2.95
	c-0.45,1.54-1.23,3.65-2.57,5.95C168.58,79.11,165.72,81.45,164.27,82.51z"/>
<path class="st7" d="M50.05,8.31"/>
<path class="st7" d="M50.05,91.48"/>
<path class="st7" d="M61.64,98.86"/>
<g>

		<ellipse transform="matrix(0.6577 -0.7533 0.7533 0.6577 39.5064 132.5995)" class="st10" cx="165.65" cy="22.83" rx="1.61" ry="2.09"/>

		<ellipse transform="matrix(0.6577 -0.7533 0.7533 0.6577 41.0937 128.85)" class="st10" cx="162.32" cy="19.21" rx="1.07" ry="1.39"/>
</g>
<g>

		<ellipse transform="matrix(0.7533 -0.6577 0.6577 0.7533 -5.8197 127.8065)" class="st10" cx="167.45" cy="71.66" rx="2.09" ry="1.61"/>

		<ellipse transform="matrix(0.7533 -0.6577 0.6577 0.7533 -9.0156 126.5064)" class="st10" cx="164.11" cy="75.27" rx="1.39" ry="1.07"/>
</g>
<g>
	<polygon class="st11" points="165.65,22.83 186.42,7.15 189.99,17.87 	"/>
	<polygon class="st11" points="162.32,19.22 183.54,14.98 179.61,5.54 	"/>
</g>
<g>
	<polygon class="st11" points="167.43,71.68 188.2,87.35 191.78,76.63 	"/>
	<polygon class="st11" points="164.11,75.29 185.33,79.52 181.39,88.96 	"/>
</g>
<rect x="19.63" y="22.21" class="st4" width="60.95" height="53.53"/>
<line class="st12" x1="19.28" y1="28.45" x2="80.23" y2="28.82"/>
<line class="st12" x1="19.58" y1="36.59" x2="80.53" y2="36.97"/>
<line class="st12" x1="19.53" y1="44.72" x2="80.48" y2="45.1"/>
<line class="st12" x1="19.28" y1="52.85" x2="80.23" y2="53.23"/>
<line class="st12" x1="19.55" y1="61.84" x2="80.5" y2="62.21"/>
<line class="st12" x1="19.28" y1="68.72" x2="80.23" y2="69.1"/>
<rect x="16.3" y="12.38" class="st9" width="64.49" height="9.8"/>
<rect x="-8.87" y="47.53" transform="matrix(6.158351e-03 -1 1 6.158351e-03 -31.1758 66.6978)" class="st13" width="53.67" height="3"/>
<rect x="16.3" y="75.86" class="st9" width="64.49" height="10.92"/>
<g>
	<circle class="st14" cx="66.75" cy="36.78" r="13.31"/>
	<circle class="st14" cx="66.75" cy="36.78" r="10.98"/>
	<line class="st12" x1="66.75" y1="25.8" x2="66.75" y2="23.47"/>
	<line class="st12" x1="55.77" y1="36.78" x2="53.44" y2="36.78"/>
	<line class="st12" x1="77.72" y1="36.78" x2="80.05" y2="36.78"/>
	<circle class="st14" cx="70.79" cy="36.78" r="1.62"/>
</g>
<g>
	<circle class="st15" cx="35.24" cy="36.78" r="13.31"/>
	<circle class="st15" cx="35.24" cy="36.78" r="10.98"/>
	<line class="st12" x1="45.62" y1="40.35" x2="47.82" y2="41.11"/>
	<line class="st12" x1="38.81" y1="26.4" x2="39.57" y2="24.2"/>
	<line class="st12" x1="31.66" y1="47.16" x2="30.91" y2="49.36"/>
	<circle class="st15" cx="33.92" cy="40.6" r="1.62"/>
</g>
<g>
	<circle class="st15" cx="55.91" cy="62.06" r="13.31"/>
	<circle class="st15" cx="55.91" cy="62.06" r="10.98"/>
	<line class="st12" x1="45.01" y1="63.4" x2="42.7" y2="63.68"/>
	<line class="st12" x1="57.24" y1="72.96" x2="57.53" y2="75.27"/>
	<line class="st12" x1="54.57" y1="51.17" x2="54.28" y2="48.85"/>
	<circle class="st15" cx="55.41" cy="58.05" r="1.62"/>
</g>
<rect x="24.76" y="56.34" class="st16" width="15.08" height="19.45"/>
<rect x="24.76" y="62.69" class="st16" width="15.08" height="7.94"/>
<rect x="90.51" y="-25.91" class="st17" width="71.37" height="4.56"/>
<rect x="27.36" y="-115.38" class="st17" width="30.68" height="37.84"/>
<rect x="55.07" y="-47.94" class="st3" width="25.26" height="27.58"/>
<line class="st12" x1="96.88" y1="-23.37" x2="100" y2="-17.35"/>
<line class="st12" x1="121.52" y1="-14.36" x2="119.22" y2="-8.34"/>
<line class="st12" x1="67.9" y1="-18.24" x2="65.6" y2="-22.48"/>
<line class="st12" x1="92.24" y1="-7.11" x2="95.36" y2="-11.35"/>
<rect x="91.76" y="-25.91" class="st17" width="25.11" height="11.01"/>
<path class="st3" d="M126.51-22.23h-20.19c-1.1,0-2-0.9-2-2v-3.36c0-1.1,0.9-2,2-2h20.19c1.1,0,2,0.9,2,2v3.36
	C128.51-23.13,127.61-22.23,126.51-22.23z"/>
<rect x="59.91" y="-50.29" class="st17" width="3.46" height="17.45"/>
<rect x="173.15" y="33.71" class="st18" width="1.57" height="27.09"/>
</svg>
