<?xml version="1.0" encoding="utf-8"?>
<!-- Generator: Adobe Illustrator 25.2.1, SVG Export Plug-In . SVG Version: 6.00 Build 0)  -->
<svg version="1.1" id="Layer_1" xmlns="http://www.w3.org/2000/svg" xmlns:xlink="http://www.w3.org/1999/xlink" x="0px" y="0px"
	 viewBox="0 0 200 100" style="enable-background: new 0 0 200 100;" xml:space="preserve">
<style type="text/css">
  .st0 { fill: #bdccd4; }
  .st1 { fill: #808080; stroke: #000; stroke-miterlimit: 10; }
  .st2 { fill: #abadb0; stroke: #000; stroke-miterlimit: 10; }
  .st3 { fill: #333; stroke: #000; stroke-miterlimit: 10; }
  .st4 { fill: #809ead; stroke: #000; stroke-miterlimit: 10; }
  .st5 { fill: #d6c2ad; }
  .st6 { fill: #abadb0; }
  .st7 { fill: #fff; stroke: #000; stroke-miterlimit: 10; }
  .st8 { fill: #731224; stroke: #000; stroke-miterlimit: 10; }
  .st9 { fill: #e7e7e0; stroke: #000; stroke-miterlimit: 10; }
  .st10 { fill: none; stroke: #000; stroke-width: 0.5; stroke-miterlimit: 10.0006; }
  .st11 { opacity: 0.4; fill: #fcee21; enable-background: new; }
  .st12 { fill: none; stroke: #000; stroke-miterlimit: 10; }
  .st13 { stroke: #000; stroke-miterlimit: 10; }
  .st14 { stroke: #4d4d4d; stroke-miterlimit: 10; }
  .st15 { fill: none; stroke: #999; stroke-width: 0.25; stroke-miterlimit: 10; }
  .st16 { fill: #bdccd4; stroke: #000; stroke-miterlimit: 10; }
  .st17 { fill: #ed1c24; stroke: #000; stroke-miterlimit: 10; }
  .st18 { fill: #fcee21; stroke: #000; stroke-miterlimit: 10; }
</style>
<path class="st0" d="M92.24,109.03"/>
<path d="M158.41,90.89h-23.15v-5.88c3.86,0,7.72,0,11.58,0s7.72,0,11.58,0C158.41,86.98,158.41,88.93,158.41,90.89z"/>
<path d="M158.41,11.42h-23.15V5.54c3.86,0,7.72,0,11.58,0s7.72,0,11.58,0C158.41,7.51,158.41,9.47,158.41,11.42z"/>
<path d="M64.12,15.12H40.96V9.24c3.86,0,7.72,0,11.58,0s7.72,0,11.58,0C64.12,11.21,64.12,13.16,64.12,15.12z"/>
<path d="M64.12,90.89H40.96v-5.88c3.86,0,7.72,0,11.58,0s7.72,0,11.58,0C64.12,86.98,64.12,88.93,64.12,90.89z"/>
<path class="st1" d="M128.65,88.71h-4.97v11.08c1.11,0,2.2,0,3.31,0c0.57-1.22,1.3-3.11,1.66-5.54
	C128.97,91.96,128.83,90.02,128.65,88.71z"/>
<path class="st1" d="M128.65,11.08h-4.97V0c1.11,0,2.2,0,3.31,0c0.57,1.22,1.3,3.11,1.66,5.54C128.97,7.83,128.83,9.78,128.65,11.08
	z"/>
<path class="st2" d="M161.73,86.85c-11.03,0.61-22.06,1.23-33.09,1.84V9.24c11.03,0,22.06,0,33.09,0
	c3.75,3.11,8.92,8.44,11.58,16.64c1.18,3.65,1.04,5.31,1.66,20.32c0.77,18.64,1.16,20.27,0,24.02
	C173.82,73.93,170.81,80.74,161.73,86.85z"/>
<path class="st2" d="M128.65,88.71c-25.92-0.61-51.84-1.23-77.75-1.84V12.94c25.92-1.23,51.84-2.47,77.75-3.7
	C128.65,35.73,128.65,62.22,128.65,88.71z"/>
<path class="st3" d="M117.06,73.93c-19.02-0.3-38.05-0.61-57.07-0.93c1.34,3,2.66,6.01,4,9.01c16.62,0.39,33.25,0.77,49.85,1.16
	C114.92,80.08,115.99,77,117.06,73.93z"/>
<path class="st3" d="M117.06,25.86c-19.57,0.93-39.14,1.84-58.72,2.77c1.38-3.61,2.75-7.24,4.13-10.85
	c17.09-0.39,34.19-0.77,51.28-1.16C114.85,19.72,115.96,22.79,117.06,25.86z"/>
<polygon class="st4" points="165.75,32.08 165.99,65.24 157.34,75.86 122.86,77.29 126.2,50.94 125.7,30.58 124.54,21.13
	156.84,21.43 "/>
<polygon class="st5" points="53,78.61 56.22,81.17 66.75,64.58 63.53,62.02 "/>
<polygon class="st5" points="54.83,16.66 52.06,19.77 64.91,34.14 67.7,31.03 "/>
<polygon class="st6" points="109.25,30.57 114.35,34.6 124.88,18.02 119.76,13.98 "/>
<polygon class="st6" points="112.26,65.6 108.66,69.05 120.59,84.42 124.16,80.95 "/>
<path class="st3" d="M127.81,80.38c-4.41-2.16-8.83-4.31-13.23-6.47c0-16.64,0-33.26,0-49.91c4.41-1.54,8.83-3.07,13.23-4.61
	c2.09,7.53,4.34,18.7,4.13,32.33C131.74,63.6,129.76,73.41,127.81,80.38z"/>
<path class="st7" d="M115.31,21"/>
<path class="st2" d="M122.02,9.24l-7.44,14.78L122.02,9.24z"/>
<path class="st8" d="M120.37,88.71l-7.44-14.78L120.37,88.71z"/>
<path class="st9" d="M80.79,75.77l36.27-1.84c0-16.64,0-33.26,0-49.91c-12.09-0.61-24.18-1.23-36.27-1.84"/>
<path class="st7" d="M171.58,26.19c-1.57,0.95-3.15,1.88-4.74,2.82l-8.28-11.53c1.39-1.72,2.79-3.43,4.18-5.15
	c1.18,0.93,2.77,2.38,4.34,4.49C169.92,20.59,171.1,24.34,171.58,26.19z"/>
<path class="st7" d="M164.27,82.51c-1.27-1.41-2.54-2.82-3.81-4.24l7.45-12.21c1.88,0.98,3.75,1.97,5.63,2.95
	c-0.45,1.54-1.23,3.65-2.57,5.95C168.58,79.11,165.72,81.45,164.27,82.51z"/>
<path class="st7" d="M50.05,8.31"/>
<path class="st7" d="M50.05,91.48"/>
<path class="st7" d="M61.64,98.86"/>
<g>

		<ellipse transform="matrix(0.6577 -0.7533 0.7533 0.6577 39.5072 132.5991)" class="st10" cx="165.65" cy="22.83" rx="1.61" ry="2.09"/>

		<ellipse transform="matrix(0.6577 -0.7533 0.7533 0.6577 41.092 128.853)" class="st10" cx="162.32" cy="19.21" rx="1.07" ry="1.39"/>
</g>
<g>

		<ellipse transform="matrix(0.7533 -0.6577 0.6577 0.7533 -5.8203 127.801)" class="st10" cx="167.44" cy="71.66" rx="2.09" ry="1.61"/>

		<ellipse transform="matrix(0.7533 -0.6577 0.6577 0.7533 -9.0169 126.5025)" class="st10" cx="164.11" cy="75.27" rx="1.39" ry="1.07"/>
</g>
<g>
	<polygon class="st11" points="165.65,22.83 186.42,7.15 189.99,17.87 	"/>
	<polygon class="st11" points="162.32,19.22 183.54,14.98 179.61,5.54 	"/>
</g>
<g>
	<polygon class="st11" points="167.43,71.68 188.2,87.35 191.78,76.63 	"/>
	<polygon class="st11" points="164.11,75.29 185.33,79.52 181.39,88.96 	"/>
</g>
<rect x="19.63" y="22.21" class="st3" width="60.95" height="53.53"/>
<line class="st12" x1="19.28" y1="28.45" x2="80.23" y2="28.82"/>
<line class="st12" x1="19.58" y1="36.59" x2="80.53" y2="36.97"/>
<line class="st12" x1="19.53" y1="44.72" x2="80.48" y2="45.1"/>
<line class="st12" x1="19.28" y1="52.85" x2="80.23" y2="53.23"/>
<line class="st12" x1="19.55" y1="61.84" x2="80.5" y2="62.21"/>
<line class="st12" x1="19.28" y1="68.72" x2="80.23" y2="69.1"/>
<rect x="16.3" y="12.38" class="st9" width="64.49" height="9.8"/>
<rect x="-8.87" y="47.53" transform="matrix(6.158585e-03 -1 1 6.158585e-03 -31.1784 66.6992)" class="st9" width="53.67" height="3"/>
<rect x="16.3" y="75.86" class="st9" width="64.49" height="10.92"/>
<rect x="171.58" y="39.95" class="st13" width="4.49" height="1.75"/>
<rect x="171.58" y="51.29" class="st13" width="3.59" height="1.75"/>
<g>
	<ellipse class="st14" cx="179.65" cy="40.62" rx="3.97" ry="0.67"/>
	<path class="st13" d="M175.69,41.31l7.9,0v6.93c-0.68,1.29-2.17,2.14-3.83,2.18c-1.74,0.04-3.36-0.82-4.07-2.18
		C175.69,45.94,175.69,43.63,175.69,41.31z"/>
	<path class="st13" d="M183.6,53.13h-7.9v-7.21c0.68-1.34,2.17-2.23,3.83-2.27c1.74-0.04,3.36,0.86,4.07,2.27
		C183.6,48.32,183.6,50.72,183.6,53.13z"/>
	<ellipse class="st14" cx="179.61" cy="53.5" rx="3.97" ry="0.67"/>
	<path class="st15" d="M175.18,43.3c0.79-0.35,2.22-0.87,4.1-0.93c2.25-0.07,3.96,0.57,4.78,0.93"/>
	<path class="st15" d="M175.18,43.77c0.79-0.35,2.22-0.87,4.1-0.93c2.25-0.07,3.96,0.57,4.78,0.93"/>
	<path class="st15" d="M175.18,44.24c0.79-0.35,2.22-0.87,4.1-0.93c2.25-0.07,3.96,0.57,4.78,0.93"/>
	<path class="st15" d="M175.18,44.93c0.79-0.35,2.22-0.87,4.1-0.93c2.25-0.07,3.96,0.57,4.78,0.93"/>
	<path class="st15" d="M175.18,45.53c0.79-0.35,2.22-0.87,4.1-0.93c2.25-0.07,3.96,0.57,4.78,0.93"/>
	<path class="st15" d="M175.18,46.09c0.79-0.35,2.22-0.87,4.1-0.93c2.25-0.07,3.96,0.57,4.78,0.93"/>
	<path class="st15" d="M175.18,46.83c0.79-0.35,2.22-0.87,4.1-0.93c2.25-0.07,3.96,0.57,4.78,0.93"/>
	<path class="st15" d="M175.18,47.3c0.79-0.35,2.22-0.87,4.1-0.93c2.25-0.07,3.96,0.57,4.78,0.93"/>
	<path class="st15" d="M175.18,47.9c0.79-0.35,2.22-0.87,4.1-0.93c2.25-0.07,3.96,0.57,4.78,0.93"/>
	<path class="st15" d="M175.18,48.66c0.79-0.35,2.22-0.87,4.1-0.93c2.25-0.07,3.96,0.57,4.78,0.93"/>
	<path class="st15" d="M175.19,49.39c0.79-0.35,2.22-0.87,4.1-0.93c2.25-0.07,3.96,0.57,4.78,0.93"/>
	<path class="st15" d="M175.18,49.12c0.79-0.35,2.22-0.87,4.1-0.93c2.25-0.07,3.96,0.57,4.78,0.93"/>
	<path class="st15" d="M175.18,50.06c0.79-0.35,2.22-0.87,4.1-0.93c2.25-0.07,3.96,0.57,4.78,0.93"/>
	<path class="st15" d="M175.18,50.68c0.79-0.35,2.22-0.87,4.1-0.93c2.25-0.07,3.96,0.57,4.78,0.93"/>
	<path class="st15" d="M175.19,51.39c0.79-0.35,2.22-0.87,4.1-0.93c2.25-0.07,3.96,0.57,4.78,0.93"/>
	<path class="st15" d="M175.19,52.1c0.79-0.35,2.22-0.87,4.1-0.93c2.25-0.07,3.96,0.57,4.78,0.93"/>
	<path class="st15" d="M175.19,51.12c0.62-0.74,1.81-2,3.67-3.09c2.23-1.31,4.26-1.7,5.25-1.84"/>
</g>
<g>
	<circle class="st16" cx="66.75" cy="36.78" r="13.31"/>
	<circle class="st16" cx="66.75" cy="36.78" r="10.98"/>
	<line class="st16" x1="66.75" y1="25.8" x2="66.75" y2="23.47"/>
	<line class="st16" x1="55.77" y1="36.78" x2="53.44" y2="36.78"/>
	<line class="st16" x1="77.72" y1="36.78" x2="80.05" y2="36.78"/>
	<circle class="st16" cx="70.79" cy="36.78" r="1.62"/>
</g>
<g>
	<circle class="st17" cx="35.24" cy="36.78" r="13.31"/>
	<circle class="st17" cx="35.24" cy="36.78" r="10.98"/>
	<line class="st17" x1="45.62" y1="40.35" x2="47.82" y2="41.11"/>
	<line class="st17" x1="38.81" y1="26.4" x2="39.57" y2="24.2"/>
	<line class="st17" x1="31.66" y1="47.16" x2="30.91" y2="49.36"/>
	<circle class="st17" cx="33.92" cy="40.6" r="1.62"/>
</g>
<g>
	<circle class="st17" cx="55.91" cy="62.06" r="13.31"/>
	<circle class="st17" cx="55.91" cy="62.06" r="10.98"/>
	<line class="st17" x1="45.01" y1="63.4" x2="42.7" y2="63.68"/>
	<line class="st17" x1="57.24" y1="72.96" x2="57.53" y2="75.27"/>
	<line class="st17" x1="54.57" y1="51.17" x2="54.28" y2="48.85"/>
	<circle class="st17" cx="55.41" cy="58.05" r="1.62"/>
</g>
<rect x="24.76" y="56.34" class="st18" width="15.08" height="19.45"/>
<rect x="24.76" y="62.69" class="st18" width="15.08" height="7.94"/>
</svg>
