<?xml version="1.0" encoding="utf-8"?>
<!-- Generator: Adobe Illustrator 25.2.1, SVG Export Plug-In . SVG Version: 6.00 Build 0)  -->
<svg version="1.1" id="Layer_1" xmlns="http://www.w3.org/2000/svg" xmlns:xlink="http://www.w3.org/1999/xlink" x="0px" y="0px"
	 viewBox="0 0 100 100" style="enable-background: new 0 0 100 100;" xml:space="preserve">
<style type="text/css">
  .st0 { fill: #c1272d; }
  .st1 { fill: #c69c6d; }
</style>
<g>
	<ellipse class="st0" cx="49.94" cy="50" rx="13.82" ry="49.94"/>
	<path d="M49.94,0.19c7.55,0,13.69,22.35,13.69,49.81s-6.14,49.81-13.69,49.81c-7.55,0-13.69-22.35-13.69-49.81
		S42.39,0.19,49.94,0.19 M49.94-0.06c-7.7,0-13.94,22.41-13.94,50.06s6.24,50.06,13.94,50.06c7.7,0,13.94-22.41,13.94-50.06
		S57.64-0.06,49.94-0.06L49.94-0.06z"/>
</g>
<g>
	<path class="st1" d="M58.2,84.71c-2.65,0-5.54-0.59-8.56-1.75c-3.7-1.42-6.02-3.45-9.85-6.82c-3.28-2.88-6.21-6.24-8.09-8.54
		c-6.84-8.41-11.77-17.54-12.17-18.29c0.18-0.79,2.32-10.14,7.28-18.07c1.53-2.46,4.1-6.56,8.97-10.06
		c2.28-1.64,7.12-4.53,13.82-5.47c0.79-0.11,2.9-0.41,5.64-0.41c5.57,0,13.38,1.22,18.96,7.01c7.69,7.99,6.29,19.89,5.45,27.01
		c-0.41,3.45-2.91,9.85-7.89,22.6c-2.6,6.64-3.85,9.31-6.74,11.05C63.11,84.12,60.82,84.71,58.2,84.71z"/>
	<path d="M55.26,15.17v0.25c5.55,0,13.32,1.21,18.87,6.97c7.65,7.95,6.25,19.81,5.42,26.91c-0.4,3.44-2.91,9.84-7.9,22.6
		c-2.58,6.59-3.82,9.24-6.68,10.96c-1.89,1.14-4.17,1.72-6.76,1.72c-2.64,0-5.5-0.59-8.52-1.74c-3.68-1.41-5.99-3.44-9.81-6.79
		c-3.27-2.87-6.2-6.22-8.07-8.53c-6.71-8.25-11.55-17.14-12.13-18.23c0.23-1.04,2.39-10.21,7.26-17.99
		c1.53-2.45,4.09-6.54,8.94-10.02c2.28-1.63,7.09-4.51,13.77-5.45c0.79-0.11,2.89-0.41,5.63-0.41V15.17 M55.25,15.17
		c-2.76,0-4.85,0.3-5.66,0.41c-7.43,1.05-12.5,4.51-13.88,5.5c-4.79,3.44-7.31,7.38-9.01,10.09c-5.21,8.32-7.31,18.16-7.31,18.16
		c0,0,5.04,9.54,12.2,18.35c3.93,4.83,6.98,7.58,8.1,8.56c3.81,3.34,6.17,5.41,9.89,6.84c1,0.39,4.58,1.76,8.61,1.76
		c2.28,0,4.71-0.44,6.89-1.76c2.89-1.74,4.12-4.28,6.78-11.09c5-12.79,7.5-19.19,7.91-22.66c0.86-7.34,2.24-19.08-5.49-27.11
		C68.62,16.31,60.67,15.17,55.25,15.17L55.25,15.17z"/>
</g>
<g>
	<path class="st1" d="M52.06,66.88c-10.15,0-18.4-8.25-18.4-18.4c0-10.15,8.25-18.4,18.4-18.4c10.15,0,18.4,8.25,18.4,18.4
		C70.46,58.62,62.2,66.88,52.06,66.88z"/>
	<path d="M52.06,30.2c10.08,0,18.28,8.2,18.28,18.28s-8.2,18.28-18.28,18.28s-18.28-8.2-18.28-18.28S41.98,30.2,52.06,30.2
		 M52.06,29.95c-10.23,0-18.53,8.29-18.53,18.53S41.83,67,52.06,67s18.53-8.29,18.53-18.53S62.29,29.95,52.06,29.95L52.06,29.95z"/>
</g>
</svg>
